<?xml version="1.0" encoding="UTF-8"?>
<svg id="Layer_1" xmlns="http://www.w3.org/2000/svg" xmlns:xlink="http://www.w3.org/1999/xlink" viewBox="0 0 45.38 45.35">
  <defs>
    <style>
      .cls-1, .cls-2 {
        fill: none;
      }

      .cls-2 {
        stroke: #f47929;
        stroke-width: 1.15px;
      }

      .cls-3 {
        fill: #f47929;
      }

      .cls-4 {
        clip-path: url(#clippath);
      }
    </style>
    <clipPath id="clippath">
      <rect class="cls-1" width="45.38" height="45.35"/>
    </clipPath>
  </defs>
  <g class="cls-4">
    <path class="cls-2" d="M22.69,44.78c12.21,0,22.12-9.9,22.12-22.1S34.91.57,22.69.57.58,10.47.58,22.68s9.9,22.1,22.12,22.1Z"/>
    <path class="cls-3" d="M22.3,26.18c2.62,0,4.71,2.04,4.71,4.59v2.46h-9.43v-2.46c0-2.54,2.09-4.59,4.71-4.59M22.3,25.18c-3.15,0-5.7,2.49-5.7,5.58v2.96c0,.27.22.5.49.5h10.42c.27,0,.5-.22.5-.5h0v-2.96c0-3.09-2.56-5.58-5.71-5.58M31.87,23.93c-1.58,0-2.99.74-3.87,1.9-.16.22-.12.53.09.69.22.17.53.13.7-.09.7-.91,1.82-1.51,3.09-1.51,2.15,0,3.86,1.69,3.86,3.8v2h-5.71c-.28,0-.5.22-.5.49h0c0,.28.22.5.5.5h6.2c.27,0,.5-.22.5-.5v-2.5c0-2.65-2.18-4.79-4.86-4.79M12.73,23.93c-2.68,0-4.85,2.14-4.85,4.79v2.5c0,.27.22.49.5.5h6.2c.27,0,.49-.22.5-.5,0-.27-.22-.5-.5-.5h-5.7v-2c0-2.11,1.71-3.8,3.86-3.8,1.27,0,2.38.6,3.09,1.51.17.22.48.26.7.09t0,0c.22-.17.26-.48.09-.69-.89-1.15-2.3-1.9-3.88-1.9M22.3,17.56c1.52,0,2.73,1.19,2.73,2.66s-1.21,2.65-2.73,2.65-2.72-1.19-2.72-2.65,1.2-2.66,2.72-2.66M31.87,17.38c1.2,0,2.15.94,2.15,2.11s-.95,2.11-2.15,2.11-2.15-.94-2.15-2.11.95-2.11,2.15-2.11M12.74,17.38c1.2,0,2.15.94,2.15,2.11s-.95,2.11-2.15,2.11-2.15-.94-2.15-2.11.95-2.11,2.15-2.11M22.3,16.56c-2.04,0-3.72,1.64-3.72,3.65s1.67,3.65,3.72,3.65,3.72-1.63,3.72-3.65-1.68-3.65-3.72-3.65M31.87,16.38c-1.73,0-3.14,1.39-3.14,3.11s1.42,3.11,3.14,3.11,3.14-1.4,3.14-3.11-1.42-3.11-3.14-3.11M12.74,16.38c-1.73,0-3.14,1.39-3.14,3.11s1.42,3.11,3.14,3.11,3.14-1.4,3.14-3.11-1.42-3.11-3.14-3.11M29.12,11.57c-.13,0-.26.05-.35.14l-2.2,2.18c-.2.19-.2.51,0,.7,0,0,0,0,0,0,.19.19.51.2.7,0l2.2-2.18c.2-.19.2-.51,0-.7,0,0,0,0,0,0-.09-.1-.22-.15-.35-.15ZM15.49,11.57c-.13,0-.26.05-.35.15-.19.19-.19.51,0,.7,0,0,0,0,0,0l2.2,2.18c.2.19.51.19.7,0,0,0,0,0,0,0,.19-.19.19-.51,0-.7,0,0,0,0,0,0l-2.2-2.18c-.09-.09-.22-.14-.35-.14M22.3,8.78c-.27,0-.49.22-.5.49v3.08c0,.27.22.5.5.5s.5-.22.5-.49h0v-3.09c0-.27-.22-.5-.5-.49"/>
  </g>
</svg>