<?xml version="1.0" encoding="UTF-8"?>
<svg id="Layer_1" xmlns="http://www.w3.org/2000/svg" xmlns:xlink="http://www.w3.org/1999/xlink" viewBox="0 0 45.38 45.35">
  <defs>
    <style>
      .cls-1, .cls-2 {
        fill: none;
      }

      .cls-2 {
        stroke: #f47929;
        stroke-width: 1.15px;
      }

      .cls-3 {
        fill: #f47929;
      }

      .cls-4 {
        clip-path: url(#clippath);
      }
    </style>
    <clipPath id="clippath">
      <rect class="cls-1" y="0" width="45.38" height="45.35"/>
    </clipPath>
  </defs>
  <g class="cls-4">
    <path class="cls-2" d="M22.69,44.78c12.21,0,22.12-9.9,22.12-22.1S34.91.57,22.69.57.58,10.47.58,22.68s9.9,22.1,22.12,22.1Z"/>
    <path class="cls-3" d="M22.69,20.72c1.08,0,1.95.88,1.95,1.95s-.88,1.95-1.95,1.95-1.95-.88-1.95-1.95.88-1.95,1.95-1.95M22.69,25.34c1.47,0,2.66-1.19,2.66-2.66s-1.19-2.66-2.66-2.66-2.66,1.19-2.66,2.66,1.19,2.66,2.66,2.66"/>
    <path class="cls-3" d="M18.87,22.68c0-.78-.49-1.45-1.2-1.7.22-.66.58-1.28,1.03-1.8.57.49,1.4.58,2.08.19.67-.39,1.01-1.15.87-1.89.7-.14,1.38-.14,2.08,0-.14.74.2,1.5.87,1.89.67.39,1.5.3,2.07-.19.46.52.81,1.14,1.03,1.8-.71.25-1.2.92-1.2,1.7s.5,1.45,1.2,1.7c-.22.66-.58,1.28-1.03,1.8-.57-.49-1.4-.58-2.07-.19-.67.39-1.01,1.15-.87,1.89-.7.14-1.38.14-2.08,0,.14-.74-.2-1.5-.87-1.89-.67-.39-1.5-.3-2.08.19-.46-.52-.81-1.14-1.03-1.8.71-.25,1.2-.92,1.2-1.7M18.74,27.04c.1,0,.2-.06.26-.14.33-.45.95-.59,1.44-.31.48.28.68.88.45,1.39-.04.09-.04.2,0,.29.05.09.13.16.23.19.53.14,1.06.22,1.58.22s1.05-.07,1.58-.22c.1-.03.18-.1.23-.19.04-.09.05-.2,0-.29-.22-.52-.03-1.11.45-1.39.48-.28,1.1-.15,1.44.31.06.08.16.14.26.14.1,0,.2-.03.28-.1.76-.75,1.3-1.7,1.57-2.73.03-.1,0-.2-.05-.29-.06-.09-.15-.14-.25-.15-.56-.06-.98-.53-.98-1.09s.42-1.03.98-1.09c.1-.01.19-.07.25-.15.06-.09.08-.19.05-.29-.27-1.04-.82-1.98-1.57-2.73-.07-.07-.17-.11-.28-.1-.1,0-.2.06-.26.14-.33.45-.95.59-1.44.31-.48-.28-.68-.88-.45-1.39.04-.09.04-.2,0-.29-.05-.09-.13-.16-.23-.19-1.05-.29-2.1-.29-3.15,0-.1.03-.18.1-.23.19-.04.09-.05.2,0,.29.22.52.03,1.11-.45,1.39-.49.28-1.1.15-1.44-.31-.06-.08-.15-.14-.26-.14-.11,0-.2.03-.28.1-.76.75-1.3,1.7-1.57,2.73-.03.1,0,.2.05.29.06.08.15.14.25.15.56.06.98.53.98,1.09s-.42,1.03-.98,1.09c-.1.01-.19.07-.25.15-.06.08-.08.19-.05.29.27,1.04.82,1.98,1.57,2.73.07.07.17.11.28.1"/>
    <path class="cls-3" d="M22.69,14.89c4.29,0,7.78,3.49,7.78,7.78s-3.49,7.78-7.78,7.78-7.78-3.49-7.78-7.78,3.49-7.78,7.78-7.78M22.69,31.17c4.68,0,8.49-3.81,8.49-8.49s-3.81-8.49-8.49-8.49-8.49,3.81-8.49,8.49,3.81,8.49,8.49,8.49"/>
    <path class="cls-3" d="M22.69,9.24c.85,0,1.54.69,1.54,1.53s-.69,1.53-1.54,1.53-1.54-.69-1.54-1.53.69-1.53,1.54-1.53M22.69,13.01c1.24,0,2.25-1.01,2.25-2.24s-1.01-2.24-2.25-2.24-2.25,1-2.25,2.24,1.01,2.24,2.25,2.24"/>
    <path class="cls-3" d="M26.08,10.86c.8.24,1.58.57,2.32.98.05.03.11.04.17.04.12,0,.24-.06.31-.18.09-.17.03-.39-.14-.48-.78-.44-1.61-.78-2.46-1.04-.19-.06-.38.05-.44.24-.06.19.05.38.24.44"/>
    <path class="cls-3" d="M16.81,11.8c.06,0,.11-.01.17-.04.74-.4,1.52-.72,2.33-.95.19-.05.3-.25.24-.44-.05-.19-.25-.3-.44-.24-.86.24-1.69.58-2.47,1.01-.17.09-.24.31-.14.48.06.12.19.19.31.19"/>
    <path class="cls-3" d="M10.79,21.13c.85,0,1.53.69,1.53,1.54s-.69,1.54-1.53,1.54-1.53-.69-1.53-1.54.69-1.54,1.53-1.54M10.79,24.93c1.23,0,2.24-1.01,2.24-2.25s-1.01-2.25-2.24-2.25-2.24,1.01-2.24,2.25,1.01,2.25,2.24,2.25"/>
    <path class="cls-3" d="M10.43,19.53s.07.01.1.01c.15,0,.29-.1.34-.25.24-.8.57-1.58.98-2.32.1-.17.03-.39-.14-.48-.17-.09-.39-.03-.48.14-.44.78-.78,1.61-1.04,2.46-.06.19.05.38.24.44"/>
    <path class="cls-3" d="M10.82,26.06c-.05-.19-.25-.3-.44-.24-.19.05-.3.25-.24.44.24.86.58,1.69,1.01,2.47.06.12.18.18.31.18.06,0,.11-.01.17-.04.17-.09.24-.31.14-.48-.4-.74-.72-1.52-.95-2.33"/>
    <path class="cls-3" d="M22.69,36.11c-.85,0-1.54-.69-1.54-1.53s.69-1.53,1.54-1.53,1.54.69,1.54,1.53-.69,1.53-1.54,1.53M24.94,34.58c0-1.23-1.01-2.24-2.25-2.24s-2.25,1.01-2.25,2.24,1.01,2.24,2.25,2.24,2.25-1.01,2.25-2.24"/>
    <path class="cls-3" d="M19.3,34.49c-.8-.24-1.58-.57-2.32-.98-.17-.1-.39-.03-.48.14-.1.17-.03.39.14.48.78.43,1.61.78,2.46,1.04.03.01.07.02.1.02.15,0,.29-.1.34-.25.06-.19-.05-.38-.24-.44"/>
    <path class="cls-3" d="M28.4,33.6c-.74.4-1.52.72-2.33.95-.19.05-.3.25-.24.44.04.16.18.26.34.26.03,0,.07,0,.1-.01.86-.24,1.69-.58,2.47-1.01.17-.09.24-.31.14-.48-.09-.17-.31-.24-.48-.14"/>
    <path class="cls-3" d="M34.59,21.13c.85,0,1.53.69,1.53,1.54s-.69,1.54-1.53,1.54-1.53-.69-1.53-1.54.69-1.54,1.53-1.54M34.59,24.93c1.24,0,2.24-1.01,2.24-2.25s-1.01-2.25-2.24-2.25-2.24,1.01-2.24,2.25,1.01,2.25,2.24,2.25"/>
    <path class="cls-3" d="M34.95,25.83c-.19-.06-.38.05-.44.24-.24.8-.57,1.58-.98,2.32-.1.17-.03.39.14.48.05.03.11.05.17.05.12,0,.24-.07.31-.18.43-.78.78-1.61,1.04-2.46.06-.19-.05-.38-.24-.44"/>
    <path class="cls-3" d="M34.56,19.3c.04.16.19.26.34.26.03,0,.06,0,.1-.01.19-.05.3-.25.24-.44-.24-.86-.58-1.69-1.01-2.47-.09-.17-.31-.24-.48-.14-.17.09-.24.31-.14.48.4.74.72,1.52.95,2.33"/>
  </g>
</svg>