<?xml version="1.0" encoding="UTF-8"?>
<svg id="Layer_1" xmlns="http://www.w3.org/2000/svg" xmlns:xlink="http://www.w3.org/1999/xlink" viewBox="0 0 45.38 45.35">
  <defs>
    <style>
      .cls-1, .cls-2 {
        fill: none;
      }

      .cls-2 {
        stroke: #f47929;
        stroke-width: 1.15px;
      }

      .cls-3 {
        fill: #f47929;
      }

      .cls-4 {
        clip-path: url(#clippath);
      }
    </style>
    <clipPath id="clippath">
      <rect class="cls-1" y="0" width="45.38" height="45.35"/>
    </clipPath>
  </defs>
  <g class="cls-4">
    <path class="cls-2" d="M22.69,44.78c12.21,0,22.12-9.9,22.12-22.1S34.91.57,22.69.57.58,10.47.58,22.68s9.9,22.1,22.12,22.1Z"/>
    <path class="cls-3" d="M22.69,16.2c-.2-.01-.35-.18-.34-.38,0-.11.07-.21.16-.28l.62-.36,4.55-2.65c.57-.33,1.2-.52,1.86-.56l1.31-.08,1.71-.99c.17-.11.39-.06.49.11.11.17.06.39-.11.49,0,0-.02,0-.03.01l-1.78,1.03s-.1.04-.16.05l-1.39.09c-.55.03-1.07.19-1.55.47l-5.17,2.99c-.05.03-.12.05-.18.05"/>
    <path class="cls-3" d="M22.69,20.95c-.2,0-.36-.16-.36-.36,0-.37-.3-.67-.67-.67-.11,0-.22.03-.32.09-.06.03-.12.05-.18.05-.2,0-.36-.16-.36-.36,0-.5.26-.96.69-1.2l3.09-1.78c.17-.1.39-.04.49.13.1.17.04.39-.13.49l-3.09,1.78s-.09.05-.12.09c.37.02.72.18.97.46.26-.29.64-.46,1.03-.46.22,0,.43.05.63.16.14.05.24.18.24.34,0,.2-.16.36-.36.36-.07,0-.13-.02-.19-.05-.1-.06-.21-.09-.32-.09-.37,0-.67.3-.67.67h0c0,.2-.16.36-.36.36"/>
    <path class="cls-3" d="M24.75,17.39c-.2,0-.36-.16-.36-.35,0-.13.07-.25.18-.31l.81-.46c.17-.1.39-.04.49.13h0c.1.17.04.39-.13.49,0,0,0,0,0,0l-.81.45c-.05.04-.11.06-.18.06"/>
    <path class="cls-3" d="M24.98,20.32s-.08,0-.12-.02l-.74-.26c-.19-.06-.29-.26-.22-.45.03-.08.09-.15.16-.2l2.36-1.35c.17-.1.39-.06.49.11.11.17.06.39-.11.49,0,0-.02.01-.03.02l-1.68.97c.18.07.28.27.21.46-.05.14-.18.23-.33.24h0Z"/>
    <path class="cls-3" d="M26.81,23.33c-.2,0-.36-.16-.36-.36v-2.37c0-.13.07-.24.18-.31l.81-.47c.17-.1.39-.04.48.13.1.17.04.39-.13.49h0l-.63.36v1.56l.92-.53c.17-.11.39-.06.49.11.11.17.06.39-.11.49,0,0-.02.01-.03.01l-1.46.84c-.05.03-.12.05-.18.05"/>
    <path class="cls-3" d="M28.83,24.38c-.12,0-.24-.01-.36-.04-.36-.09-.66-.33-.85-.65-.12-.21-.19-.45-.18-.69,0-.47.23-.91.62-1.16l.03-.02.04-.02,1.13-.65c.17-.1.39-.04.49.13.1.17.04.39-.13.49h0l-1.11.64-.06.04c-.18.12-.29.34-.29.56,0,.11.03.23.09.33.09.16.24.28.42.32.17.05.35.02.5-.07l2.68-1.55c1.01-.58,1.66-1.63,1.74-2.8l.1-1.65c0-.12.07-.22.17-.28l1.78-1.03c.16-.12.38-.08.5.08.12.16.08.38-.08.5-.02.01-.04.03-.06.04l-1.62.94-.09,1.46c-.09,1.4-.88,2.67-2.1,3.37l-2.68,1.54c-.21.12-.44.19-.68.19"/>
    <path class="cls-3" d="M32.71,10.47l3.76,6.51,1.17-.67-3.76-6.5-1.17.67ZM36.34,17.83c-.13,0-.25-.07-.31-.18l-4.12-7.13c-.1-.17-.04-.39.13-.49h0s1.78-1.03,1.78-1.03c.17-.1.39-.04.49.13l4.12,7.12c.05.08.06.18.04.27-.02.09-.08.17-.17.22l-1.78,1.03c-.05.03-.12.05-.18.05"/>
    <path class="cls-3" d="M20.63,17.39c-.06,0-.12-.02-.18-.05l-.81-.47c-.17-.1-.23-.32-.13-.49t0,0c.1-.17.32-.23.49-.12l.81.47c.17.1.23.32.14.49-.06.11-.18.18-.31.18h0Z"/>
    <path class="cls-3" d="M22.69,16.2c-.06,0-.12-.02-.18-.05l-2.14-1.22c-.17-.1-.23-.32-.13-.49.1-.17.32-.23.49-.13l2.14,1.22c.17.1.23.31.14.49-.06.11-.18.18-.31.18"/>
    <path class="cls-3" d="M21.15,20.06c-.06,0-.12-.02-.18-.05l-2.36-1.36c-.17-.09-.24-.31-.15-.48.09-.17.31-.24.48-.15,0,0,.02,0,.03.01l2.36,1.35c.17.1.23.31.14.49-.06.11-.18.18-.31.18"/>
    <path class="cls-3" d="M21.14,19.31c-.5,0-.95-.28-1.2-.71-.12-.21-.18-.45-.18-.69,0-.5.26-.96.69-1.2l2.06-1.16c.17-.1.39-.04.49.13.1.17.04.39-.13.49l-2.06,1.16c-.21.12-.34.34-.34.59,0,.37.3.67.67.67.12,0,.24-.03.34-.09l1.03-.59c.17-.1.39-.04.49.13.1.17.04.39-.13.49l-1.03.59c-.21.13-.45.2-.7.2"/>
    <path class="cls-3" d="M20.63,17.39c-.06,0-.12-.02-.18-.05l-.81-.47c-.17-.1-.23-.32-.13-.49t0,0c.1-.17.32-.23.49-.12l.81.47c.17.1.23.32.14.49-.06.11-.18.18-.31.18h0Z"/>
    <path class="cls-3" d="M18.57,20.95c-.06,0-.12-.02-.18-.05l-.81-.47c-.17-.1-.23-.32-.13-.49h0c.1-.17.32-.22.48-.13l.83.47c.17.1.22.32.13.49-.07.12-.19.18-.33.18"/>
    <path class="cls-3" d="M21.15,20.06c-.06,0-.12-.02-.18-.05l-2.36-1.36c-.17-.09-.24-.31-.15-.48.09-.17.31-.24.48-.15,0,0,.02,0,.03.01l2.36,1.35c.17.1.23.31.14.49-.06.11-.18.18-.31.18"/>
    <path class="cls-3" d="M18.57,23.33c-.06,0-.11-.02-.16-.05l-5.2-2.99c-.56-.33-1.05-.78-1.41-1.33l-.71-1.09-1.71-.99c-.17-.1-.22-.33-.11-.49.1-.16.3-.21.47-.12l1.78,1.03s.09.06.12.11l.77,1.16c.3.45.7.83,1.17,1.1l5.17,3c.17.1.23.32.12.49-.06.11-.18.17-.3.17h0Z"/>
    <path class="cls-3" d="M18.57,20.95c-.06,0-.12-.02-.18-.05l-.81-.47c-.17-.1-.23-.32-.13-.49h0c.1-.17.32-.22.48-.13l.83.47c.17.1.22.32.13.49-.07.12-.19.18-.33.18"/>
    <path class="cls-3" d="M21.7,15.47c-.24,0-.48-.06-.69-.18l-1.12-.65c-.18-.09-.24-.31-.15-.48.09-.17.31-.24.48-.15,0,0,.02.01.03.01l1.12.65c.33.17.74.05.91-.28.16-.31.06-.69-.24-.88l-2.68-1.54c-1.01-.58-2.24-.62-3.29-.11l-1.48.74c-.1.06-.23.06-.33,0l-1.78-1.03c-.17-.1-.22-.33-.11-.49.1-.16.3-.21.47-.12l1.62.93,1.31-.65c1.26-.62,2.75-.58,3.96.12l2.68,1.55c.66.39.89,1.24.5,1.9-.25.42-.7.69-1.19.69h0Z"/>
    <path class="cls-3" d="M7.74,16.31l1.17.66,3.76-6.51-1.17-.67-3.76,6.51ZM9.04,17.83c-.06,0-.12-.02-.18-.05l-1.78-1.03c-.08-.05-.14-.13-.17-.22-.02-.09-.01-.19.04-.27l4.12-7.13c.1-.17.31-.23.48-.13l1.78,1.03c.17.1.23.32.13.49,0,0,0,0,0,0l-4.12,7.13c-.06.11-.18.18-.31.18"/>
    <path class="cls-3" d="M20.63,24.52c-.2,0-.36-.16-.36-.36v-3.56c.03-.37-.25-.69-.62-.72s-.69.25-.72.62c0,.03,0,.06,0,.1v2.37c0,.2-.16.36-.36.36s-.36-.16-.36-.36v-2.37c-.04-.76.55-1.42,1.31-1.45.76-.04,1.42.55,1.45,1.31,0,.05,0,.09,0,.14v3.56c0,.2-.16.36-.36.36"/>
    <path class="cls-3" d="M20.63,24.52c-.2,0-.36-.16-.36-.36v-3.56c0-.5.28-.96.71-1.2l.04-.02c.2-.11.42-.17.65-.17.76,0,1.37.63,1.37,1.39v1.78c0,.2-.16.36-.36.36s-.36-.16-.36-.36v-1.78c0-.37-.3-.67-.67-.67-.11,0-.22.03-.32.09l-.05.02c-.19.12-.3.33-.3.56v3.56c0,.2-.16.36-.36.36"/>
    <path class="cls-3" d="M26.81,20.95c-.2,0-.36-.16-.36-.36,0-.37-.3-.67-.67-.67-.21,0-.4.09-.52.26-.12.16-.35.18-.5.06-.16-.12-.18-.34-.06-.5.26-.34.66-.53,1.09-.53.76,0,1.38.62,1.38,1.39,0,.2-.16.36-.36.36"/>
    <path class="cls-3" d="M25.78,34.34c-.2,0-.36-.16-.36-.36v-2.04c0-.06.01-.11.04-.16l.62-1.27c.24-.48.36-1.02.36-1.56v-5.98c0-.2.16-.36.36-.36s.36.16.36.36v5.98c0,.65-.15,1.3-.44,1.88l-.58,1.17v1.98c0,.19-.15.35-.35.36"/>
    <path class="cls-3" d="M24.75,24.52c-.2,0-.36-.16-.36-.36v-3.56c0-.23-.12-.44-.31-.56l-.05-.02c-.1-.06-.21-.09-.32-.09-.37,0-.67.3-.67.67v1.78c0,.2-.16.36-.36.36s-.36-.16-.36-.36v-1.78c0-.77.62-1.39,1.39-1.39.23,0,.45.06.65.17l.04.02c.44.24.71.7.71,1.2v3.56c0,.2-.16.36-.36.36h-.01"/>
    <path class="cls-3" d="M22.69,25.46c-.2,0-.36-.16-.36-.36v-2.72c0-.2.16-.36.36-.36s.36.16.36.36v2.72c0,.2-.16.36-.36.36"/>
    <path class="cls-3" d="M24.75,25.46c-.2,0-.36-.16-.36-.36v-.94c0-.2.16-.36.36-.36s.36.16.36.36v.94c0,.2-.16.36-.36.36"/>
    <path class="cls-3" d="M18.57,25.07c-.2,0-.36-.16-.36-.36v-1.75c0-.2.16-.36.36-.36s.36.16.36.36v1.75c0,.2-.16.36-.36.36"/>
    <path class="cls-3" d="M20.63,25.46c-.2,0-.36-.16-.36-.36v-.94c0-.2.16-.36.36-.36s.36.16.36.36v.94c0,.2-.16.36-.36.36"/>
    <path class="cls-3" d="M19.6,34.34c-.2,0-.36-.16-.36-.36v-1.87l-1.22-.81c-1.17-.78-1.87-2.09-1.87-3.5v-3.09c0-.77.62-1.39,1.39-1.39.76,0,1.39.62,1.39,1.39v1.3c0,.2-.16.36-.36.36s-.36-.16-.36-.36v-1.3c0-.37-.3-.67-.67-.67-.37,0-.67.3-.67.67v3.09c0,1.17.57,2.26,1.54,2.91l1.38.91c.1.07.16.18.16.3v2.06c0,.19-.15.35-.35.36"/>
    <path class="cls-3" d="M18.93,35.68h7.52v-1.35h-7.52v1.35ZM26.81,36.4h-8.23c-.2,0-.36-.16-.36-.36v-2.06c0-.2.16-.36.36-.36h8.23c.2,0,.36.16.36.36v2.06c0,.2-.16.36-.36.36"/>
  </g>
</svg>