<?xml version="1.0" encoding="UTF-8"?>
<svg id="Layer_1" xmlns="http://www.w3.org/2000/svg" xmlns:xlink="http://www.w3.org/1999/xlink" viewBox="0 0 45.38 45.35">
  <defs>
    <style>
      .cls-1, .cls-2 {
        fill: none;
      }

      .cls-2 {
        stroke: #f47929;
        stroke-width: 1.15px;
      }

      .cls-3 {
        fill: #f47929;
      }

      .cls-4 {
        clip-path: url(#clippath);
      }
    </style>
    <clipPath id="clippath">
      <rect class="cls-1" width="45.38" height="45.35"/>
    </clipPath>
  </defs>
  <g class="cls-4">
    <path class="cls-2" d="M22.69,44.78c12.21,0,22.12-9.9,22.12-22.1S34.91.58,22.69.58.58,10.47.58,22.68s9.9,22.1,22.12,22.1Z"/>
    <path class="cls-3" d="M23.91,14.74c-.12,0-.22-.1-.22-.22v-3.21h-3.27c-.12,0-.22-.1-.22-.22s.1-.22.22-.22h3.49c.12,0,.22.1.22.22v3.43c0,.12-.1.22-.22.22"/>
    <path class="cls-3" d="M18.4,20.36h-3.49c-.12,0-.22-.1-.22-.22v-3.51c0-.12.1-.22.22-.22s.22.1.22.22v3.28h3.27c.12,0,.22.1.22.22s-.1.22-.22.22"/>
    <path class="cls-3" d="M14.91,14.82c-.12,0-.22-.1-.22-.22v-3.51c0-.12.1-.22.22-.22h3.38c.12,0,.22.1.22.22s-.1.22-.22.22h-3.15v3.28c0,.12-.1.22-.22.22"/>
    <path class="cls-3" d="M23.91,20.36h-3.5c-.12,0-.22-.1-.22-.22s.1-.22.22-.22h3.28v-3.21c0-.12.1-.22.22-.22s.22.1.22.22v3.43c0,.12-.1.22-.22.22"/>
    <path class="cls-3" d="M27.41,20.36h-3.5c-.12,0-.22-.1-.22-.22v-3.43c0-.12.1-.22.22-.22s.22.1.22.22v3.21h3.28c.12,0,.22.1.22.22s-.1.22-.22.22"/>
    <path class="cls-3" d="M32.92,20.36h-3.5c-.12,0-.22-.1-.22-.22s.1-.22.22-.22h3.28v-3.21c0-.12.1-.22.22-.22s.22.1.22.22v3.43c0,.12-.1.22-.22.22"/>
    <path class="cls-3" d="M23.91,14.74c-.12,0-.22-.1-.22-.22v-3.43c0-.12.1-.22.22-.22h9.01c.12,0,.22.1.22.22v3.43c0,.12-.1.22-.22.22s-.22-.1-.22-.22v-3.21h-8.57v3.21c0,.12-.1.22-.22.22"/>
    <path class="cls-3" d="M27.41,20.36h-3.5c-.12,0-.22-.1-.22-.22v-3.43c0-.12.1-.22.22-.22s.22.1.22.22v3.21h3.28c.12,0,.22.1.22.22s-.1.22-.22.22"/>
    <path class="cls-3" d="M32.92,20.36h-3.5c-.12,0-.22-.1-.22-.22s.1-.22.22-.22h3.28v-3.21c0-.12.1-.22.22-.22s.22.1.22.22v3.43c0,.12-.1.22-.22.22"/>
    <path class="cls-3" d="M23.91,14.74c-.12,0-.22-.1-.22-.22v-3.43c0-.12.1-.22.22-.22h9.01c.12,0,.22.1.22.22v3.43c0,.12-.1.22-.22.22s-.22-.1-.22-.22v-3.21h-8.57v3.21c0,.12-.1.22-.22.22"/>
    <path class="cls-3" d="M18.28,11.31c-.06,0-.12-.02-.16-.07-.31-.32-.48-.74-.48-1.19,0-.94.77-1.71,1.71-1.71s1.71.77,1.71,1.71c0,.45-.17.87-.48,1.19-.09.09-.22.09-.31,0-.08-.08-.09-.22,0-.31.23-.23.36-.55.36-.88,0-.7-.57-1.27-1.27-1.27s-1.27.57-1.27,1.27c0,.34.13.65.35.88.08.09.08.23,0,.31-.04.04-.09.06-.15.06"/>
    <path class="cls-3" d="M31.92,17.33c-.94,0-1.71-.77-1.71-1.71s.77-1.71,1.71-1.71c.43,0,.83.16,1.15.45.09.08.1.22.01.31-.08.09-.22.1-.31.01-.24-.22-.54-.33-.86-.33-.7,0-1.27.57-1.27,1.27s.57,1.27,1.27,1.27c.32,0,.62-.12.85-.33.09-.08.23-.08.31.01.08.09.08.23-.01.31-.31.28-.72.44-1.15.44"/>
    <path class="cls-3" d="M22.9,17.33c-.94,0-1.71-.77-1.71-1.71s.77-1.71,1.71-1.71c.43,0,.84.16,1.16.45.09.08.09.22.01.31-.08.09-.22.09-.31.01-.23-.22-.54-.34-.85-.34-.7,0-1.27.57-1.27,1.27s.57,1.27,1.27,1.27c.32,0,.63-.12.85-.34.09-.08.23-.08.31,0,.08.09.08.23,0,.31-.31.28-.73.45-1.16.45"/>
    <path class="cls-3" d="M13.83,17.33c-.94,0-1.71-.77-1.71-1.71s.77-1.71,1.71-1.71c.47,0,.92.2,1.24.54.09.09.08.23,0,.31-.09.09-.23.08-.31,0-.24-.26-.57-.4-.92-.4-.7,0-1.27.57-1.27,1.27s.57,1.27,1.27,1.27c.35,0,.69-.14.92-.4.08-.09.22-.09.31-.01.09.08.09.22.01.31-.32.33-.77.53-1.24.53"/>
    <path class="cls-3" d="M18.4,20.36c-.05,0-.11-.02-.15-.06-.35-.32-.55-.77-.55-1.25,0-.94.77-1.71,1.71-1.71s1.71.77,1.71,1.71c0,.48-.2.94-.56,1.26-.09.08-.23.07-.31-.02-.08-.09-.07-.23.02-.31.26-.23.41-.57.41-.93,0-.7-.57-1.27-1.27-1.27s-1.27.57-1.27,1.27c0,.35.15.69.41.93.09.08.1.22.01.31-.04.05-.09.07-.15.07"/>
    <path class="cls-3" d="M29.42,20.36c-.06,0-.12-.03-.17-.07-.08-.09-.07-.23.02-.31.26-.23.41-.57.41-.93,0-.7-.57-1.27-1.27-1.27s-1.27.57-1.27,1.27c0,.36.15.69.41.93.09.08.1.22.02.31-.08.09-.22.1-.31.02-.35-.32-.56-.77-.56-1.26,0-.94.77-1.71,1.71-1.71s1.71.77,1.71,1.71c0,.48-.2.94-.56,1.26-.04.04-.08.05-.14.05"/>
    <path class="cls-3" d="M9.12,30.39l6.09,6.09,2.71-2.71c.21-.21.21-.56,0-.77l-5.37-5.37c-.1-.1-.24-.16-.38-.16h0c-.15,0-.28.06-.38.16l-2.66,2.75ZM15.21,37.01c-.06,0-.11-.02-.16-.06l-6.4-6.4c-.08-.09-.08-.22,0-.31l2.81-2.9c.18-.19.43-.3.7-.3h0c.26,0,.51.1.69.29l5.37,5.37c.39.39.39,1.01,0,1.39l-2.87,2.87s-.1.07-.16.07"/>
    <path class="cls-3" d="M27.96,27.87h-4.63c-.12,0-.22-.1-.22-.22s.1-.22.22-.22h4.63c.81,0,1.46-.65,1.46-1.46s-.65-1.46-1.46-1.46h-5.69c-.31,0-.63-.07-.96-.21-3.11-1.33-6.88.14-8.41,3.28-.05.11-.18.16-.3.1-.11-.05-.16-.18-.1-.3,1.62-3.35,5.65-4.91,8.97-3.49.27.12.54.18.78.18h5.69c1.05,0,1.9.85,1.9,1.9,0,1.04-.85,1.9-1.9,1.9"/>
    <path class="cls-3" d="M17.87,32.86s-.09-.01-.13-.05c-.1-.08-.11-.22-.04-.31.44-.57.87-.98,1.32-1.28.47-.31,1.05-.47,1.67-.47h7.53c1.15,0,2.22-.51,2.95-1.4l4.87-5.93c.45-.56.41-1.37-.1-1.88-.26-.26-.62-.41-1-.41h0c-.38,0-.73.15-.99.42l-4.21,4.15c-.09.08-.22.08-.31,0-.09-.08-.09-.23,0-.31l4.2-4.14c.35-.35.81-.55,1.31-.55h0c.49,0,.95.19,1.3.54.67.67.73,1.73.13,2.47l-4.87,5.93c-.81.99-2.01,1.56-3.29,1.56h-7.53c-.54,0-1.03.14-1.43.39-.41.26-.81.65-1.21,1.17-.05.06-.11.09-.17.09"/>
  </g>
</svg>