<?xml version="1.0" encoding="UTF-8"?>
<svg id="Layer_1" xmlns="http://www.w3.org/2000/svg" xmlns:xlink="http://www.w3.org/1999/xlink" viewBox="0 0 59.03 59.03">
  <defs>
    <style>
      .cls-1, .cls-2 {
        fill: none;
      }

      .cls-3 {
        clip-path: url(#clippath-1);
      }

      .cls-2 {
        stroke: #fff;
        stroke-width: 1.5px;
      }

      .cls-4 {
        clip-path: url(#clippath);
      }
    </style>
    <clipPath id="clippath">
      <rect class="cls-1" x="0" width="59.03" height="59.03"/>
    </clipPath>
    <clipPath id="clippath-1">
      <rect class="cls-1" x="0" width="59.03" height="59.03"/>
    </clipPath>
  </defs>
  <g class="cls-4">
    <path class="cls-2" d="M25.58,25.96c2.26.64,4.68.35,6.73-.81l10.14,8.23c.21.17.39.38.53.61l2.88-2.64-5.53-8.85-3.31,1.21-4.33-1.55h0c-.9-.32-1.91-.19-2.7.35-1.37.95-2.87,1.71-4.44,2.28-.25.09-.41.33-.4.6,0,.26.19.49.44.56h0Z"/>
    <path class="cls-2" d="M26.43,38.84c.08-.71-.16-1.42-.66-1.94-.5-.51-1.2-.77-1.92-.71.16-.65.04-1.34-.33-1.9-.38-.56-.97-.93-1.63-1.03-.66-.1-1.34.09-1.86.52l-.16.13c0-.6-.24-1.18-.66-1.61-.41-.44-.98-.7-1.58-.73-.6-.04-1.19.16-1.66.54l-1.52,1.26-1.39-1.02,5.8-9.54h0c1.91.05,3.82-.02,5.72-.19,1.35-.42,2.77-.54,4.17-.34-1.11.69-2.28,1.26-3.51,1.7-.4.14-.72.45-.88.84-.16.39-.15.84.04,1.22.19.38.53.67.93.78,2.28.65,4.73.43,6.86-.6l9.68,7.86h0c.38.31.58.81.51,1.3-.07.49-.39.91-.85,1.11-.46.2-.98.14-1.38-.15l-7.24-5.2c-.2-.14-.47-.1-.62.1-.14.2-.1.47.1.62l6.99,5.02h0c.43.31.67.83.61,1.36-.05.53-.39.99-.87,1.21-.49.22-1.05.16-1.49-.15l-6.6-4.74c-.2-.14-.47-.09-.61.11-.14.19-.1.47.09.61l5.82,4.18c.43.32.65.83.6,1.36-.06.53-.38.99-.87,1.2-.48.22-1.04.17-1.48-.13l-5.48-3.94c-.2-.14-.47-.09-.62.1-.14.2-.1.47.1.62l4.19,3.01c.39.28.59.74.55,1.21-.05.47-.34.88-.77,1.08-.43.2-.93.14-1.32-.13l-2.15-1.55c.3-.55.37-1.19.2-1.79-.17-.6-.57-1.11-1.11-1.42-.54-.31-1.18-.4-1.78-.24Z"/>
    <path class="cls-2" d="M16.68,36.55l1.76-1.46c.41-.34.6-.87.52-1.4-.09-.52-.45-.96-.95-1.15-.5-.19-1.06-.09-1.47.24l-1.76,1.46c-.4.34-.6.87-.51,1.39.09.52.45.96.94,1.14s1.05.1,1.47-.23Z"/>
    <path class="cls-2" d="M22.49,36.77c.41-.34.6-.87.52-1.4-.09-.52-.45-.96-.95-1.15-.5-.19-1.06-.1-1.47.24l-3.19,2.63c-.41.34-.61.87-.52,1.4.09.52.45.96.95,1.15.5.19,1.06.09,1.47-.24l3.19-2.63Z"/>
    <path class="cls-2" d="M22.52,41.77l2.5-2.06c.41-.34.6-.87.51-1.4-.09-.52-.45-.96-.95-1.15-.5-.19-1.06-.1-1.47.24l-2.5,2.06c-.41.34-.6.87-.52,1.4.09.52.45.96.95,1.15.5.19,1.06.09,1.47-.24Z"/>
    <path class="cls-2" d="M26.08,39.99l-1.65,1.36c-.41.34-.61.87-.52,1.4.09.52.45.96.95,1.15.5.19,1.06.09,1.47-.24l1.65-1.36c.41-.34.61-.87.52-1.4s-.45-.96-.95-1.15c-.5-.19-1.06-.09-1.47.24Z"/>
  </g>
  <rect class="cls-2" x="4.59" y="22.29" width="16" height="6.23" transform="translate(-15.66 22.97) rotate(-58.72)"/>
  <rect class="cls-2" x="43.55" y="17.68" width="6.24" height="14.87" transform="translate(-6.22 28.54) rotate(-31.99)"/>
  <g class="cls-3">
    <circle class="cls-2" cx="29.51" cy="29.51" r="28.76"/>
  </g>
</svg>