<?xml version="1.0" encoding="UTF-8"?>
<svg id="Layer_1" xmlns="http://www.w3.org/2000/svg" xmlns:xlink="http://www.w3.org/1999/xlink" viewBox="0 0 59.03 59.03">
  <defs>
    <style>
      .cls-1, .cls-2, .cls-3 {
        fill: none;
      }

      .cls-4 {
        clip-path: url(#clippath-1);
      }

      .cls-5 {
        clip-path: url(#clippath-2);
      }

      .cls-2 {
        stroke-linecap: round;
        stroke-linejoin: round;
      }

      .cls-2, .cls-3 {
        stroke: #fff;
        stroke-width: 1.5px;
      }

      .cls-6 {
        clip-path: url(#clippath);
      }
    </style>
    <clipPath id="clippath">
      <rect class="cls-1" x="0" width="59.03" height="59.03"/>
    </clipPath>
    <clipPath id="clippath-1">
      <rect class="cls-1" x="0" width="59.03" height="59.03"/>
    </clipPath>
    <clipPath id="clippath-2">
      <rect class="cls-1" x="0" width="59.03" height="59.03"/>
    </clipPath>
  </defs>
  <g class="cls-6">
    <circle class="cls-3" cx="29.51" cy="29.51" r="28.76"/>
    <path class="cls-2" d="M21.29,12.66s-4.82,3.76,0,8.65c0,0,4.82-3.97,0-8.65Z"/>
    <path class="cls-2" d="M20.54,24.08s-.15-5.1-5.81-4.22c0,0,.29,5.2,5.81,4.22Z"/>
    <path class="cls-2" d="M22.04,24.08s.15-5.1,5.81-4.22c0,0-.29,5.2-5.81,4.22Z"/>
    <path class="cls-2" d="M20.54,30.03s-.15-5.1-5.81-4.22c0,0,.29,5.2,5.81,4.22Z"/>
    <path class="cls-2" d="M22.04,30.03s.15-5.1,5.81-4.22c0,0-.29,5.2-5.81,4.22Z"/>
    <path class="cls-2" d="M20.54,35.97s-.15-5.1-5.81-4.22c0,0,.29,5.2,5.81,4.22Z"/>
    <path class="cls-2" d="M22.04,35.97s.15-5.1,5.81-4.22c0,0-.29,5.2-5.81,4.22Z"/>
  </g>
  <line class="cls-2" x1="21.43" y1="21.16" x2="21.43" y2="48.05"/>
  <g class="cls-4">
    <path class="cls-2" d="M37.73,12.66s-4.82,3.76,0,8.65c0,0,4.82-3.97,0-8.65Z"/>
    <path class="cls-2" d="M36.98,24.08s-.15-5.1-5.81-4.22c0,0,.29,5.2,5.81,4.22Z"/>
    <path class="cls-2" d="M38.48,24.08s.15-5.1,5.81-4.22c0,0-.29,5.2-5.81,4.22Z"/>
    <path class="cls-2" d="M36.98,30.03s-.15-5.1-5.81-4.22c0,0,.29,5.2,5.81,4.22Z"/>
    <path class="cls-2" d="M38.48,30.03s.15-5.1,5.81-4.22c0,0-.29,5.2-5.81,4.22Z"/>
    <path class="cls-2" d="M36.98,35.97s-.15-5.1-5.81-4.22c0,0,.29,5.2,5.81,4.22Z"/>
    <path class="cls-2" d="M38.48,35.97s.15-5.1,5.81-4.22c0,0-.29,5.2-5.81,4.22Z"/>
  </g>
  <line class="cls-2" x1="37.87" y1="21.16" x2="37.87" y2="48.05"/>
  <g class="cls-5">
    <path class="cls-3" d="M11.09,51.64s16.72-9.21,37.13,0"/>
  </g>
</svg>