<?xml version="1.0" encoding="UTF-8"?>
<svg id="Layer_1" xmlns="http://www.w3.org/2000/svg" xmlns:xlink="http://www.w3.org/1999/xlink" viewBox="0 0 59.03 59.03">
  <defs>
    <style>
      .cls-1, .cls-2 {
        fill: none;
      }

      .cls-2 {
        stroke: #fff;
        stroke-width: 1.5px;
      }

      .cls-3 {
        clip-path: url(#clippath);
      }
    </style>
    <clipPath id="clippath">
      <rect class="cls-1" x="0" width="59.03" height="59.03"/>
    </clipPath>
  </defs>
  <g class="cls-3">
    <circle class="cls-2" cx="29.51" cy="29.51" r="28.76"/>
    <path class="cls-2" d="M45.6,25.75c0,2.65-2.15,4.8-4.8,4.8s-4.79-2.15-4.79-4.8,2.15-4.79,4.79-4.79,4.8,2.15,4.8,4.79"/>
    <path class="cls-2" d="M23.02,25.75c0,2.65-2.15,4.8-4.8,4.8s-4.79-2.15-4.79-4.8,2.15-4.79,4.79-4.79,4.8,2.15,4.8,4.79"/>
    <path class="cls-2" d="M34.31,21.99c0,2.65-2.15,4.8-4.8,4.8s-4.79-2.15-4.79-4.8,2.15-4.8,4.79-4.8,4.8,2.15,4.8,4.8"/>
    <path class="cls-2" d="M40.47,32.25c.76,1.47,1.16,3.11,1.16,4.8v3.84c0,.33-.06.65-.17.96h6.93c.26,0,.5-.1.68-.28.18-.18.28-.42.28-.68v-1.92c0-3.71-3.03-6.71-6.76-6.71h-2.13Z"/>
    <path class="cls-2" d="M39.95,37.07v3.82c0,.25-.1.5-.28.67-.18.18-.42.28-.67.28h-18.98c-.25,0-.49-.1-.67-.28-.18-.18-.28-.42-.28-.67v-3.82c0-2.28.9-4.46,2.5-6.07,1.6-1.61,3.77-2.51,6.04-2.51h3.8c2.27,0,4.44.9,6.04,2.51,1.6,1.61,2.5,3.79,2.5,6.07Z"/>
    <path class="cls-2" d="M18.5,32.25h-2.11c-3.71,0-6.72,3.01-6.72,6.71v1.92c0,.25.1.5.28.68.18.18.43.28.68.28h6.89c-.11-.31-.17-.63-.17-.96v-3.84c0-1.68.4-3.32,1.16-4.8Z"/>
  </g>
</svg>