<?xml version="1.0" encoding="UTF-8"?>
<svg id="Layer_1" xmlns="http://www.w3.org/2000/svg" xmlns:xlink="http://www.w3.org/1999/xlink" viewBox="0 0 59.03 59.03">
  <defs>
    <style>
      .cls-1, .cls-2 {
        fill: none;
      }

      .cls-3 {
        fill: #fff;
      }

      .cls-2 {
        stroke: #fff;
        stroke-width: 1.5px;
      }

      .cls-4 {
        clip-path: url(#clippath);
      }
    </style>
    <clipPath id="clippath">
      <rect class="cls-1" width="59.03" height="59.03"/>
    </clipPath>
  </defs>
  <g class="cls-4">
    <circle class="cls-2" cx="29.51" cy="29.51" r="28.76"/>
    <path class="cls-3" d="M29.56,15.42c-6.72,0-12.19,5.47-12.19,12.19,0,3.51,1.51,6.84,4.15,9.16,1.26,1.47,1.37,4.27,1.31,5.24-.03.41.12.82.4,1.13.28.3.68.48,1.09.48h10c.81,0,1.48-.65,1.5-1.46.05-1.89.54-4.3,1.21-4.92,3-2.33,4.71-5.83,4.71-9.62,0-6.72-5.47-12.19-12.19-12.19M29.56,16.92c5.9,0,10.69,4.79,10.69,10.69,0,3.45-1.64,6.52-4.17,8.47-1.64,1.42-1.75,6.03-1.75,6.03h-10s.3-4.15-1.74-6.41c-2.27-1.96-3.71-4.86-3.71-8.09,0-5.91,4.79-10.69,10.69-10.69"/>
    <path class="cls-3" d="M34.81,46.72h-10.75c-.41,0-.75-.34-.75-.75s.33-.75.75-.75h10.75c.41,0,.75.34.75.75s-.33.75-.75.75"/>
    <path class="cls-3" d="M34.81,49.77h-10.75c-.41,0-.75-.34-.75-.75s.33-.75.75-.75h10.75c.41,0,.75.34.75.75s-.33.75-.75.75"/>
    <path class="cls-3" d="M48.38,28.53h-3.86c-.41,0-.75-.33-.75-.75s.33-.75.75-.75h3.86c.41,0,.75.33.75.75s-.33.75-.75.75"/>
    <path class="cls-3" d="M14.51,28.43h0l-3.86-.04c-.41,0-.75-.34-.74-.76,0-.41.34-.74.75-.74h0l3.86.04c.41,0,.75.34.74.76,0,.41-.34.74-.75.74"/>
    <path class="cls-3" d="M29.21,12.61c-.41,0-.75-.33-.75-.75v-3.86c0-.41.34-.75.75-.75s.75.33.75.75v3.86c0,.41-.34.75-.75.75"/>
    <path class="cls-3" d="M18.98,17.08c-.19,0-.38-.07-.53-.22l-2.73-2.73c-.29-.29-.29-.77,0-1.06.29-.29.77-.29,1.06,0l2.73,2.73c.29.29.29.77,0,1.06-.15.15-.34.22-.53.22"/>
    <path class="cls-3" d="M40.35,16.87c-.19,0-.38-.07-.53-.22-.29-.29-.29-.77,0-1.06l2.73-2.73c.29-.29.77-.29,1.06,0,.29.29.29.77,0,1.06l-2.73,2.73c-.15.15-.34.22-.53.22"/>
  </g>
</svg>