<?xml version="1.0" encoding="UTF-8"?>
<svg id="Layer_1" xmlns="http://www.w3.org/2000/svg" xmlns:xlink="http://www.w3.org/1999/xlink" viewBox="0 0 59.03 59.03">
  <defs>
    <style>
      .cls-1, .cls-2 {
        fill: none;
      }

      .cls-3 {
        fill: #fff;
      }

      .cls-2 {
        stroke: #fff;
        stroke-width: 1.5px;
      }

      .cls-4 {
        clip-path: url(#clippath);
      }
    </style>
    <clipPath id="clippath">
      <rect class="cls-1" x="0" width="59.03" height="59.03"/>
    </clipPath>
  </defs>
  <g class="cls-4">
    <circle class="cls-2" cx="29.51" cy="29.51" r="28.76"/>
    <path class="cls-3" d="M19.29,43.54c-.41,0-.75-.34-.75-.75v-6.23c0-3.49,1.48-6.99,4.06-9.58,2.79-2.81,6.65-4.35,10.87-4.35.41,0,.75.33.75.75s-.34.75-.75.75c-6.46,0-13.43,4.76-13.43,12.44v6.23c0,.41-.34.75-.75.75"/>
    <path class="cls-3" d="M31.3,15.56h0c-.64,0-1.23.06-1.79.18-2.87.63-5.25,3.12-5.78,6.07-.48,2.69.54,5.62,2.66,7.64.85.81,1.76,1.39,2.72,1.7.65.22,1.35.33,2.08.33s1.48-.11,2.22-.32c3.19-.92,5.42-3.05,7.17-5.02.4-.44.78-.9,1.19-1.38.56-.66,1.14-1.35,1.78-2.04l.09-.1c.58-.63,1.13-1.22.94-2.13-.19-.89-.95-1.22-1.51-1.45-.14-.06-.3-.13-.48-.21-2.7-1.23-5.88-2.58-9.28-3.11-.75-.12-1.42-.17-2.02-.17M31.3,17.06c.6,0,1.2.06,1.8.15,3.13.48,6.05,1.7,8.89,2.99,1.36.62,1.49.41.48,1.5-1.12,1.21-2.06,2.39-2.99,3.44-1.83,2.05-3.78,3.8-6.47,4.58-.59.17-1.2.26-1.81.26-.55,0-1.09-.08-1.61-.25-.82-.28-1.54-.78-2.16-1.37-1.69-1.62-2.63-4.01-2.22-6.3.41-2.28,2.26-4.35,4.62-4.87.48-.11.98-.15,1.47-.15"/>
    <path class="cls-3" d="M10.59,16.31h0c-.48,0-.91.19-1.23.52-.51.55-.46,1.19-.43,1.66,0,.11.02.23.02.38.11,2.23.29,4.82,1.12,7.29.24.71.64,1.75,1.38,2.64,1.1,1.33,2.83,2.12,4.64,2.12.61,0,1.2-.09,1.76-.26,2.06-.64,3.75-2.42,4.41-4.63.26-.89.34-1.75.22-2.55-.17-1.09-.71-2.15-1.57-3.05-1.76-1.86-4-2.62-5.95-3.12-.43-.11-.87-.21-1.33-.31-.63-.14-1.27-.29-1.94-.47l-.1-.03c-.4-.11-.68-.19-1-.19M10.59,17.81c.13,0,.35.06.7.16,1.18.32,2.29.53,3.3.79,1.98.5,3.81,1.19,5.24,2.7.59.62,1.04,1.41,1.17,2.25.1.64.01,1.29-.17,1.89-.5,1.68-1.76,3.11-3.42,3.63-.42.13-.87.19-1.31.19-1.3,0-2.63-.55-3.49-1.57-.52-.63-.85-1.39-1.11-2.16-.75-2.23-.93-4.58-1.04-6.89-.04-.74-.13-1,.13-1"/>
    <path class="cls-3" d="M19.29,39.28c-.41,0-.75-.33-.75-.75,0-.76.01-1.53.02-2.3.03-2.33.07-4.73-.25-6.25-.32-1.52-1.06-3.65-2.78-5.17-.31-.27-.34-.75-.07-1.06.27-.31.75-.34,1.06-.07,2.03,1.79,2.89,4.25,3.25,5.99.35,1.68.32,4.06.28,6.58-.01.76-.02,1.53-.02,2.28,0,.41-.34.75-.75.75"/>
    <path class="cls-3" d="M28.67,34.4h0c-1.2,0-2.33.2-3.43.61-1.04.39-2.73,1.93-3.13,3.56-.23.94-.01,1.84.61,2.52.29.32.69.49,1.11.49.11,0,.22-.01.33-.04l.13-.03c1.6-.37,2.49-.57,3.37-.57.62,0,1.3.1,2.28.34.92.22,1.58.53,2.01.93.23.22.37.46.42.61-1.35.62-2.84.88-4.98.88-2.49,0-4.97-.41-7-1.15-1.44-.52-2.87-1.29-4.28-2.27-.41-.28-.79-.6-1.2-.93-1.02-.82-2.08-1.68-3.53-2.19-.55-.2-1.08-.3-1.58-.3-.59,0-1.12.14-1.6.41-.98.56-1.39,1.64-1.01,2.7.02.05.04.1.06.15.05.11.11.22.18.33,0,.01.01.02.02.03,1.03,1.69,1.99,3.03,3.01,4.24.04.05.08.09.12.14.45.5.98,1.05,1.56,1.61.79.76,1.62,1.48,2.49,2.12,4.26,3.17,9.36,4.84,14.73,4.84,4.12,0,8.24-1.02,11.9-2.95.37-.19.76-.42,1.21-.68.16-.09.32-.19.48-.3,1.84-1.16,3.54-2.56,5.05-4.16.41-.44,1.41-1.58,2.27-2.74,1.46-2,1.95-3.31,1.62-4.38-.22-.72-.79-1.23-1.56-1.41-.14-.03-.29-.05-.45-.05-.61,0-1.2.26-1.72.48-.13.06-.33.14-.4.16-.54.14-1.14.23-1.78.29-.35.03-.72.04-1.08.04-.79,0-1.64-.07-2.52-.2-1.49-.22-2.9-.68-4.4-1.17-1.24-.4-2.52-.82-3.89-1.11-.32-.07-.63-.14-.93-.2-1.52-.33-2.95-.65-4.47-.65M28.67,35.9c1.65,0,3.27.43,5.1.82,2.88.61,5.46,1.86,8.37,2.29.9.14,1.82.22,2.74.22.4,0,.81-.02,1.21-.05.69-.06,1.37-.16,2.04-.33.43-.11,1.26-.6,1.74-.6.04,0,.08,0,.12.01,1.92.43-2.38,5.28-3.09,6.04-1.45,1.54-3.05,2.85-4.76,3.93-.15.1-.29.18-.44.27-.38.22-.76.44-1.14.64-3.49,1.85-7.35,2.78-11.2,2.78-4.87,0-9.73-1.5-13.84-4.55-.81-.6-1.59-1.26-2.34-1.99-.57-.56-1.07-1.07-1.5-1.55-.02-.02-.05-.05-.07-.08-1.09-1.29-2.01-2.64-2.88-4.07-.04-.08-.08-.15-.12-.23-.08-.22-.13-.62.34-.89.26-.15.56-.21.86-.21.36,0,.74.09,1.08.21,1.74.62,2.91,1.91,4.37,2.93,1.43,1,2.98,1.85,4.62,2.45,2.07.76,4.68,1.24,7.5,1.24h.01c2.09,0,3.97-.23,5.76-1.09,1.22-.59.8-2.1-.17-3-.73-.68-1.7-1.05-2.67-1.28-1.09-.26-1.88-.38-2.63-.38-1.08,0-2.1.24-3.84.64-1.11-1.22,1.11-3.35,1.94-3.66,1-.38,1.96-.52,2.9-.52"/>
  </g>
</svg>