<?xml version="1.0" encoding="UTF-8"?>
<svg id="Layer_1" xmlns="http://www.w3.org/2000/svg" viewBox="0 0 1311.98 305.38">
  <defs>
    <style>
      .cls-1 {
        fill: #3777bc;
      }

      .cls-1, .cls-2, .cls-3, .cls-4 {
        stroke: #231f20;
        stroke-miterlimit: 10;
        stroke-width: .25px;
      }

      .cls-2 {
        fill: #91a93e;
      }

      .cls-3, .cls-5 {
        fill: #995d43;
      }

      .cls-4 {
        fill: #fdb913;
      }
    </style>
  </defs>
  <g>
    <path class="cls-1" d="M7.73,111.62c.91.66,2.91,1.23,7.29-.77,10.19-4.64,16.36-4.3,25.06-4.4,3.15-.04,3.43-.89,4.97-3.66,1.91-3.45,8.6-12.76,19.6-18.62,12.63-6.73,28.03-8.65,45.4-3.19,2.53.8,5.3.52,7.59-.76.68-.39,17.1-9.42,40.06-10.45,18.86-.85,37.35,4.31,52.77,15.27,2.43,1.73,7.98,5.92,12.91,11.26.44.47,1.52,2.1,3.58,2.63,1.24.31,2.72,0,4.91-.49,5.24-1.15,11.82-2.22,23.88-2.51,3.5-.08,14.29-.35,22.19-4.05.91-.42,2.84-1.46,4.44-2.25,2.32-1.14,4.29-2.1,5.37-3.05,3.35-2.91.55-6.87-.16-8.09-20.65-35.27-48.31-54.46-68.37-64.09C169.66-9.39,106.96-2.89,62.86,29.78,37.23,48.76,18.08,75.62,7.52,105.46c-.7,1.98-1.42,4.96.21,6.15"/>
    <path class="cls-2" d="M151.65,239.99c2.19.41,4.45-.84,5.41-2.38,1.3-2.11,2.19-4.04,3.34-6.06,27.26-47.58,58.81-48.97,72.76-48.34,1.96.09,5.35.39,7.78.93,5,1.11,6.3-.42,8.4-3.04,18.93-23.68,17.06-65.17,16.87-67.28-.58-6.67-6.71-6.35-7.19-6.39-2.2-.18-4.55-.13-6.61-.09-17.69.37-58.46,6.79-83.33,49.14-8.86,15.09-14.96,32.88-18.07,53.45l-.18.18v.93c-.05.33-.1.7-.17,1.11-.54,3.7-2.06,13.23-2.31,21.22,0,.27-.16,1.87.15,3.35.31,1.5,1.09,2.88,3.14,3.26"/>
    <path class="cls-4" d="M207.43,95.08c-7.46-6.19-23.76-13.55-47.47-13.22-19.57.28-37.16,8.45-50.98,20.49-13.85,12.07-22.86,28.22-26.02,46.69-.55,3.21,1.15,6.34,4.16,7.58,20.95,8.71,36.58,19.73,47.77,31.57,1.57,1.66,3.4,2.5,5.29,2.23,2.79-.4,3.8-3.19,4.13-4.41,4.73-17.18,11.55-32.22,20.26-44.69,9.92-14.19,22.61-24.59,36.99-32.48,2.83-1.55,6.23-3.36,7.51-4.93,2.95-3.64.74-6.85-1.63-8.82"/>
    <path class="cls-3" d="M9.14,137.42c19.4,1.76,34.43,4.73,50.41,9.83,1.64.52,3.29,1.03,4.94,1.46,4.27,1.1,6.45-1.39,7.11-2.67,2.88-5.61,5.24-14.87,9.52-23.88,4.73-9.95,11.48-17.79,15.35-21.77,1.48-1.51,4.39-4.12,4.91-4.86.88-1.23,1.28-2.53.91-3.74-.6-1.94-4.23-3.14-7.15-3.44-16.78-1.69-36.08,7.57-44.79,28.32-.25.6-.48,2.22-2.03,1.71-5.3-1.75-11.36-2.39-15.71-2.17-12.83.65-20.6,5.99-26.86,12.33-1.42,1.43-3.21,3.96-2.39,6.23.83,2.27,2.67,2.37,5.76,2.65"/>
    <path class="cls-2" d="M85.58,168.25c-22.25-9.82-50.02-17.13-78.42-20.1-1.82-.19-4,.15-5.35,1.4-1.36,1.27-1.75,3.34-1.68,5.2.1,2.94.3,5.96.57,8.98,3.98,42.62,22.96,79.68,52.06,101.67,14.08,10.65,26.37,14.46,37.4,15.38,24.46,2.04,42.31-8.88,49.09-26.17,4.32-11.01,9.43-58.52-53.67-86.37"/>
    <path class="cls-3" d="M299.94,108.01c-2.17-7.44-6.07-10.96-11.3-10.68-9.25.5-10.72,12.08-10.97,15.33-.63,8.53-1.27,18.41-1.49,21.46-.24,3.28-.48,6.68-.94,9.99-1.55,11.28-4.36,21.77-8.34,31.19-5.85,13.85-26.07,44.82-54.91,60.55,0,0-5,2.79-4.09-1.27.3-1.37,1.21-2.59,2.03-3.94,1.92-3.08,11.35-13.94,22.18-20.42.45-.27,4.03-2.42,6.49-4.57,3.82-3.32,1.81-7.12-.86-8.33-2.84-1.31-7.51-1.77-13.84-.94-18.25,2.38-36.14,14.29-51.76,38.64-1.71,2.67-22.33,33.84-46.36,47.89-2.75,1.61-4.69,2.72-7.55,3.71-9.04,3.12-8.45,8.48-7.75,10.05,1.68,3.77,6.66,4.45,9.95,5.13,15.35,3.13,39.74,6.48,73.96-1.46,38.52-8.95,67.07-34.07,79.67-51.45,12.33-17,21.68-36.41,26.46-53.3,11.84-41.78,2.31-77.64-.59-87.58"/>
  </g>
  <path class="cls-5" d="M380.84,177.88c1.99-20.55,3.57-43.43,4.77-68.66,1.19-25.21,1.89-48.91,2.09-71.1,6.81.13,12.48.2,17.01.2,3.07,0,7.97-.07,14.71-.2-.89,12.28-1.7,26.28-2.44,41.98l-2.03,41.05c-.61,11.74-1.05,23.41-1.32,35.02l17.22.19c16.14,0,26.76-.05,31.82-.15,5.07-.1,10.08-.29,15.02-.56-.6,6.7-1.14,14.1-1.6,22.22-17.52-.14-32.51-.2-44.97-.2l-31.49.1-18.79.1Z"/>
  <path class="cls-5" d="M506.57,177.88l2.19-29.9,2.19-44.55,1.39-43.82h-6.98l-6.49.11-6.19.1-23.04.71c.54-9.83.83-17.3.9-22.42,19.18.13,39.26.2,60.25.2l35.86-.1,19.17-.1c-.67,9.71-1,17.18-1,22.42-12.05-.61-23.62-.92-34.67-.92h-7.69l-1.19,18.7-2.87,71.97-.19,12.06c-.07,4.97-.1,10.15-.1,15.54l-15.21-.2c-1.67,0-7.1.06-16.31.2"/>
  <path class="cls-5" d="M633.56,177.88c1.21-13.37,2.01-24.13,2.41-32.25.74-13.59,1.51-33.04,2.32-58.36.6-18.7.91-31.91.91-39.63v-9.51c19.11.13,35.83.2,50.14.2l27.98-.1,16.68-.1c-.73,10.17-1.13,17.54-1.2,22.11l-14.29-.51-5.79-.11h-22.99l-20.69.11-1.21,36.75,16.99.31c12.92,0,21.22-.04,24.89-.11l13.59-.2c-.46,7.92-.76,15.17-.9,21.71-11.59-.28-20.81-.42-27.67-.42-8.66,0-18.01.14-28.07.42l-1.1,45.26-.1,9.21v5.23l-15.29-.2c-.8,0-6.34.06-16.61.2"/>
  <path class="cls-5" d="M821.3,57.47c-10.06,0-18.82,2.36-26.29,7.11-7.46,4.75-13.07,11.23-16.85,19.45-3.75,8.23-5.63,17.11-5.63,26.67,0,8.88,1.81,17.05,5.44,24.52,3.63,7.48,9.21,13.18,16.74,17.11,7.54,3.93,15.66,5.88,24.38,5.88,6.6,0,12.9-1.15,18.9-3.48,5.98-2.32,11.18-5.85,15.53-10.59,4.37-4.75,7.65-10.46,9.85-17.16,2.2-6.68,3.31-13.64,3.31-20.88,0-6.75-.99-13.24-2.96-19.45-1.97-6.21-5.02-11.55-9.14-16.02-4.13-4.48-9.11-7.79-14.94-9.94-5.83-2.15-11.94-3.22-18.33-3.22M822.9,35.66c9.93,0,19.45,1.39,28.59,4.2,9.12,2.8,17.22,7.35,24.28,13.67,7.06,6.31,12.39,13.66,15.99,22.06,3.59,8.4,5.39,18.19,5.39,29.38,0,10.51-1.69,20.57-5.1,30.16-3.4,9.6-8.65,17.85-15.78,24.79-7.13,6.92-15.81,12.05-26.03,15.4-10.24,3.35-20.98,5.02-32.23,5.02-10.66,0-20.91-1.54-30.74-4.61-9.83-3.08-18.28-7.89-25.37-14.45-7.1-6.55-12.19-14.07-15.25-22.57-3.07-8.5-4.6-17.7-4.6-27.58,0-10.87,1.91-21.24,5.75-31.14,3.82-9.9,9.45-18.08,16.88-24.57,7.44-6.48,16.12-11.4,26.08-14.75,9.97-3.34,20.67-5.02,32.13-5.02"/>
  <path class="cls-5" d="M990.2,57.47c-10.06,0-18.82,2.36-26.29,7.11-7.46,4.75-13.07,11.23-16.84,19.45-3.77,8.23-5.65,17.11-5.65,26.67,0,8.88,1.82,17.05,5.45,24.52,3.63,7.48,9.21,13.18,16.74,17.11,7.54,3.93,15.66,5.88,24.39,5.88,6.59,0,12.89-1.15,18.89-3.48,5.99-2.32,11.18-5.85,15.53-10.59,4.37-4.75,7.65-10.46,9.85-17.16,2.2-6.68,3.31-13.64,3.31-20.88,0-6.75-.99-13.24-2.96-19.45-1.97-6.21-5.02-11.55-9.14-16.02-4.14-4.48-9.12-7.79-14.94-9.94-5.83-2.15-11.94-3.22-18.33-3.22M991.8,35.66c9.93,0,19.45,1.39,28.58,4.2,9.13,2.8,17.23,7.35,24.29,13.67,7.06,6.31,12.39,13.66,15.99,22.06,3.59,8.4,5.39,18.19,5.39,29.38,0,10.51-1.69,20.57-5.1,30.16-3.4,9.6-8.65,17.85-15.78,24.79-7.13,6.92-15.81,12.05-26.04,15.4-10.22,3.35-20.97,5.02-32.22,5.02-10.67,0-20.91-1.54-30.74-4.61-9.83-3.08-18.29-7.89-25.38-14.45-7.09-6.55-12.17-14.07-15.24-22.57-3.07-8.5-4.6-17.7-4.6-27.58,0-10.87,1.92-21.24,5.75-31.14,3.82-9.9,9.46-18.08,16.88-24.57,7.44-6.48,16.12-11.4,26.08-14.75,9.97-3.34,20.67-5.02,32.13-5.02"/>
  <path class="cls-5" d="M1110.76,156.07c5.47.28,10.87.42,16.2.42,6.06,0,11.67-.31,16.84-.92,5.16-.61,9.61-1.58,13.35-2.92,3.73-1.33,7.48-3.67,11.25-7.01,3.77-3.34,6.84-7.22,9.25-11.62,2.39-4.41,4.23-9.3,5.5-14.7,1.27-5.38,1.9-10.88,1.9-16.48,0-10.24-1.7-18.66-5.1-25.24-3.4-6.59-7.88-11.32-13.44-14.23-5.57-2.9-14.14-4.34-25.73-4.34-7.54,0-16.16.13-25.89.4l-4.12,96.66ZM1080.11,177.88l2.69-35.63,2-44.55,1.28-44.32c.07-1.92.11-7,.11-15.26,7.39.13,14.35.19,20.88.19,4.86,0,11.28-.09,19.24-.3,7.96-.2,14.85-.3,20.64-.3,7.86,0,15.14.48,21.84,1.43,6.7.96,12.54,2.75,17.54,5.38,5,2.63,9.32,5.93,12.99,9.88,3.68,3.96,6.68,8.35,9.01,13.15,2.33,4.82,4.11,10.18,5.35,16.08,1.23,5.9,1.85,11.93,1.85,18.07,0,11.74-1.99,22.91-5.95,33.53-3.96,10.62-9.88,19.4-17.73,26.32-7.87,6.93-16.58,11.38-26.14,13.36-9.56,1.99-20.4,2.97-32.52,2.97l-33.99-.2c-2.13,0-8.5.07-19.08.2"/>
  <path class="cls-5" d="M1225.23,174.91c-.54-10.38-1.24-18.84-2.1-25.39,13.05,6.07,24.91,9.12,35.58,9.12,4.26,0,8.24-.67,11.94-2,3.69-1.33,6.42-3.2,8.19-5.62,1.76-2.43,2.65-5.14,2.65-8.15,0-2.32-.42-4.4-1.27-6.24-1.27-2.52-3.4-5.15-6.37-7.89-3.81-3.75-10.6-9.93-20.38-18.54-4.66-4.16-7.88-7.13-9.64-8.9-4-3.89-7.07-7.39-9.2-10.49-2.13-3.11-3.67-6.2-4.6-9.27-.93-3.07-1.39-6.35-1.39-9.83,0-6.41,1.75-12.44,5.25-18.07,3.49-5.62,8.73-10.03,15.69-13.2,6.95-3.18,15.74-4.77,26.33-4.77,9.53,0,20.25,1.19,32.18,3.58.33,7.1,1,15.22,2,24.37-10.37-4.1-19.95-6.14-28.72-6.14-6.51,0-11.85,1.51-16.01,4.55-4.16,3.04-6.23,6.57-6.23,10.59,0,1.09.15,2.24.43,3.43.29,1.2.72,2.36,1.3,3.48.58,1.13,1.62,2.6,3.09,4.41,1.49,1.81,3.66,3.93,6.52,6.35,1.18,1,4.71,4.11,8.46,7.43,5.38,4.76,11.21,9.94,11.21,9.94,3.12,2.66,5.92,5.26,8.38,7.78,2.46,2.53,4.57,4.95,6.33,7.27,1.76,2.32,3.15,4.54,4.14,6.66,1.01,2.12,1.75,4.28,2.25,6.5.5,2.22.75,4.55.75,7.01,0,5.74-1.3,11.14-3.9,16.23-2.6,5.09-6.33,9.26-11.19,12.54-4.87,3.28-10.2,5.55-15.99,6.82-5.8,1.26-11.92,1.89-18.39,1.89-4.27,0-9.23-.38-14.89-1.13-5.67-.76-13.12-2.19-22.39-4.3"/>
  <path class="cls-5" d="M377.63,278.34c.42-4.11.75-8.71.97-13.83l.77-16.86c.27-6.1.41-11.53.41-16.27,2.6.05,4.79.07,6.6.07,1.35,0,3.31-.03,5.87-.07,2.53,4.53,6.02,10.42,10.48,17.69,4.46,7.26,8.05,13.28,10.79,18.06l1.23-31.92c.03-.76.04-2.03.04-3.82,2.11.05,3.69.07,4.77.07.43,0,2-.03,4.71-.07l-.83,12.63-1.04,21.59-.4,12.73c-2.33-.05-4.31-.07-5.95-.07-1.29,0-3.4.03-6.31.07-1.12-2.04-1.98-3.56-2.55-4.53-.92-1.51-2.88-4.64-5.88-9.37-1.97-3.11-4.43-7.1-7.39-11.97-2.17-3.57-4.03-6.7-5.58-9.36-.17,3.71-.45,10.61-.82,20.68-.16,4.1-.28,8.96-.37,14.55-2.11-.05-3.63-.07-4.57-.07-.74,0-2.39.03-4.94.07"/>
  <path class="cls-5" d="M440.63,231.01c2.59.05,4.35.07,5.26.07,1.14,0,2.84-.03,5.09-.07l-1.58,27.75c-.03.33-.04.67-.04,1.04,0,3.09.43,5.42,1.29,6.98.87,1.55,2.12,2.69,3.81,3.4,1.66.71,3.57,1.06,5.72,1.06,1.37,0,2.66-.16,3.9-.47,1.01-.28,1.92-.66,2.75-1.15.67-.41,1.27-.89,1.78-1.44.6-.66,1.11-1.42,1.51-2.31.43-.84.74-1.81.94-2.88.3-1.63.56-4.46.81-8.5l.71-11.97c.16-3.49.29-7.32.38-11.53,2.52.05,4.4.07,5.62.07l4.9-.07-1.03,16.58-.67,13.18c-.2,3.08-.52,5.37-.94,6.88-.36,1.27-.86,2.44-1.51,3.51-.62.96-1.38,1.82-2.24,2.58-1.12.98-2.43,1.84-3.93,2.55-1.68.8-3.46,1.39-5.34,1.75-2.6.51-5.27.77-8.03.77s-5.47-.27-7.92-.79c-2.11-.46-4.04-1.17-5.79-2.13-1.75-.96-3.15-2.04-4.18-3.23-.82-.97-1.49-2.17-1.98-3.61-.56-1.61-.84-3.39-.84-5.37,0-.69.02-1.58.07-2.67.04-1.09.12-2.49.23-4.21l.3-4.85c.12-1.52.24-3.74.38-6.68l.33-7.46c.09-2.04.17-4.3.24-6.78"/>
  <path class="cls-5" d="M498.48,278.42c.67-6.83,1.18-14.69,1.51-23.56.34-8.88.51-16.67.51-23.39,2.69.05,4.93.07,6.75.07,1.94,0,3.85-.04,5.72-.1,1.87-.07,3.84-.11,5.93-.11,2.6,0,4.91.15,6.96.45,2.04.3,3.86.99,5.46,2.06,1.58,1.08,2.76,2.39,3.53,3.93.78,1.53,1.16,3.32,1.16,5.37,0,1.28-.15,2.5-.43,3.66-.3,1.16-.73,2.25-1.29,3.27-.57,1.03-1.25,1.92-2.03,2.69-.79.77-1.56,1.38-2.34,1.82-.77.45-1.65.83-2.63,1.15-.99.31-2.31.71-3.96,1.17l2.28,4.53c.74,1.44,2.14,4.04,4.2,7.78l3.39,6.09c.18.32.71,1.37,1.61,3.13-2.73-.05-4.54-.07-5.42-.07-1.07,0-2.96.03-5.69.07l-3.72-9.15c-.65-1.39-1.42-3.05-2.35-4.95l-4.05-8.36c-.4-.78-.96-1.95-1.67-3.51,1.5.27,2.86.42,4.1.42,1.93,0,3.69-.32,5.27-.97,1.59-.64,2.81-1.63,3.66-2.96.86-1.35,1.28-2.81,1.28-4.39,0-.97-.18-1.87-.55-2.69-.38-.82-1-1.52-1.87-2.1-.88-.58-1.91-.94-3.12-1.1-1.21-.17-2.42-.24-3.63-.24-.67,0-1.59,0-2.75.03-1.16.03-2.6.04-4.29.04l-.6,14.14-.63,25.8-5.21-.07c-.84,0-2.53.03-5.08.07"/>
  <path class="cls-5" d="M560.86,278.35l.74-10.04.73-14.96.47-14.73h-2.35l-2.18.04-2.08.04-7.75.24c.18-3.31.29-5.82.3-7.54,6.45.05,13.19.07,20.24.07l12.05-.04,6.45-.04c-.23,3.27-.34,5.78-.34,7.54-4.05-.2-7.93-.31-11.65-.31h-2.59l-.4,6.29-.96,24.17-.07,4.05c-.02,1.67-.03,3.42-.03,5.22l-5.12-.07c-.56,0-2.38.03-5.48.07"/>
  <path class="cls-5" d="M600.13,231.02c2.59.05,4.35.07,5.26.07,1.14,0,2.84-.03,5.09-.07l-1.58,27.75c-.03.33-.04.67-.04,1.04,0,3.09.43,5.42,1.29,6.98.87,1.55,2.12,2.69,3.8,3.4,1.67.71,3.58,1.06,5.73,1.06,1.37,0,2.66-.16,3.9-.47,1.01-.28,1.92-.66,2.75-1.15.67-.41,1.27-.89,1.78-1.44.6-.66,1.11-1.42,1.51-2.31.43-.84.74-1.81.94-2.88.3-1.63.56-4.46.81-8.5l.71-11.97c.16-3.49.29-7.32.38-11.53,2.52.05,4.4.07,5.62.07l4.9-.07-1.04,16.58-.66,13.18c-.2,3.08-.52,5.37-.94,6.88-.36,1.27-.86,2.44-1.51,3.51-.62.96-1.38,1.82-2.24,2.58-1.12.98-2.43,1.84-3.93,2.55-1.68.8-3.46,1.39-5.34,1.75-2.6.51-5.27.77-8.03.77s-5.47-.27-7.92-.79c-2.11-.46-4.04-1.17-5.79-2.13-1.75-.96-3.15-2.04-4.18-3.23-.82-.97-1.49-2.17-1.98-3.61-.56-1.61-.84-3.39-.84-5.37,0-.69.02-1.58.07-2.67.04-1.09.12-2.49.23-4.21l.3-4.86c.12-1.51.24-3.73.38-6.67l.33-7.46c.09-2.04.17-4.3.24-6.78"/>
  <path class="cls-5" d="M657.86,276.82c.67-6.83,1.18-14.69,1.51-23.56.34-8.88.52-16.67.52-23.39,2.68.05,4.93.07,6.74.07,1.94,0,3.85-.04,5.72-.1,1.87-.07,3.84-.11,5.93-.11,2.6,0,4.91.15,6.96.45,2.04.3,3.86.99,5.46,2.06,1.58,1.08,2.76,2.39,3.54,3.93s1.15,3.32,1.15,5.37c0,1.28-.15,2.5-.43,3.66-.3,1.16-.72,2.25-1.29,3.27-.57,1.03-1.25,1.92-2.03,2.68-.79.78-1.56,1.39-2.34,1.83-.77.45-1.65.83-2.63,1.15-.99.32-2.31.71-3.96,1.17l2.28,4.53c.74,1.44,2.14,4.04,4.2,7.78l3.39,6.09c.18.32.71,1.37,1.61,3.13-2.73-.05-4.54-.07-5.41-.07-1.08,0-2.97.03-5.7.07l-3.71-9.15c-.66-1.39-1.43-3.05-2.36-4.95l-4.05-8.36c-.4-.78-.96-1.95-1.67-3.51,1.5.27,2.86.42,4.1.42,1.93,0,3.69-.32,5.27-.97,1.59-.64,2.81-1.63,3.66-2.96.86-1.35,1.28-2.81,1.28-4.39,0-.97-.18-1.86-.55-2.69-.38-.83-1-1.52-1.87-2.1-.87-.58-1.91-.94-3.12-1.1-1.21-.17-2.42-.24-3.63-.24-.67,0-1.59,0-2.75.03-1.16.03-2.6.04-4.29.04l-.6,14.14-.63,25.8-5.22-.07c-.82,0-2.52.03-5.07.07"/>
  <path class="cls-5" d="M710.58,277.92c.54-7.89.97-15.98,1.3-24.26.33-8.29.5-14.63.5-19.01l-.03-3.69,5.61.07c.31,0,2.03-.03,5.14-.07-.91,12.07-1.5,27.72-1.74,46.96l-4.94-.07c-.83,0-2.78.03-5.85.07"/>
  <path class="cls-5" d="M739.33,278.37c.42-4.11.75-8.71.97-13.83l.77-16.86c.27-6.1.41-11.53.41-16.27,2.6.05,4.79.07,6.6.07,1.35,0,3.3-.03,5.87-.07,2.53,4.53,6.02,10.42,10.48,17.69,4.46,7.26,8.05,13.28,10.79,18.06l1.23-31.92c.03-.76.04-2.03.04-3.82,2.11.05,3.69.07,4.77.07.43,0,1.99-.03,4.71-.07l-.83,12.63-1.04,21.59-.4,12.73c-2.33-.05-4.31-.07-5.95-.07-1.29,0-3.4.03-6.31.07-1.12-2.04-1.98-3.56-2.56-4.53-.91-1.51-2.87-4.64-5.87-9.37-1.97-3.11-4.43-7.1-7.39-11.97-2.17-3.57-4.03-6.7-5.58-9.36-.17,3.71-.45,10.61-.82,20.68-.16,4.1-.29,8.96-.38,14.55-2.1-.05-3.62-.07-4.56-.07-.75,0-2.39.03-4.94.07"/>
  <path class="cls-5" d="M826.52,251.57c3.08.05,6.05.07,8.86.07,3.7,0,6.77-.03,9.24-.07-.59,7.68-1.01,16.21-1.26,25.59-3.71.76-7.07,1.29-10.07,1.6-2.99.31-5.55.47-7.65.47-3.94,0-7.6-.42-10.96-1.27-3.37-.86-6.22-2.24-8.54-4.14-2.33-1.89-4.1-4.41-5.32-7.51-1.22-3.11-1.83-6.39-1.83-9.85,0-2.96.45-5.82,1.37-8.56.9-2.76,2.24-5.28,4.02-7.58,1.78-2.28,3.93-4.19,6.45-5.72,2.52-1.52,5.2-2.57,8.03-3.13,2.84-.55,5.83-.85,8.99-.85,4.34,0,9.33.6,14.97,1.8.02,2.6.15,5.33.37,8.18-5.28-1.81-10.07-2.72-14.33-2.72-2.75,0-5.36.41-7.8,1.2-2.46.8-4.57,2.04-6.35,3.73-1.77,1.69-3.13,3.78-4.05,6.26-.93,2.48-1.39,5.06-1.39,7.72,0,2.96.53,5.61,1.59,7.92,1.07,2.33,2.85,4.14,5.36,5.42,2.51,1.28,5.38,1.93,8.64,1.93,1.18,0,2.58-.11,4.19-.33,1.61-.21,3.29-.58,5.03-1.12l.55-12.07-2.66-.04c-1.5,0-3.41.04-5.72.1.2-3.08.3-5.42.3-7.05"/>
  <path class="cls-5" d="M917.6,251.57c3.09.05,6.04.07,8.87.07,3.69,0,6.76-.03,9.23-.07-.58,7.68-1.01,16.21-1.26,25.59-3.71.76-7.07,1.29-10.07,1.6-2.99.31-5.55.47-7.66.47-3.93,0-7.58-.42-10.95-1.27-3.36-.86-6.22-2.24-8.54-4.14-2.33-1.89-4.1-4.41-5.32-7.51-1.22-3.11-1.83-6.39-1.83-9.85,0-2.96.45-5.82,1.37-8.56.91-2.76,2.24-5.28,4.03-7.58,1.77-2.28,3.93-4.19,6.45-5.72,2.51-1.52,5.19-2.57,8.02-3.13,2.84-.55,5.83-.85,8.99-.85,4.34,0,9.33.6,14.97,1.8.03,2.6.15,5.33.37,8.18-5.28-1.81-10.06-2.72-14.33-2.72-2.75,0-5.36.41-7.8,1.2-2.46.8-4.57,2.04-6.35,3.73-1.77,1.69-3.13,3.78-4.05,6.26-.93,2.48-1.39,5.06-1.39,7.72,0,2.96.53,5.61,1.6,7.92,1.06,2.33,2.84,4.14,5.35,5.42,2.51,1.28,5.38,1.93,8.64,1.93,1.18,0,2.59-.11,4.19-.33,1.62-.21,3.29-.58,5.03-1.12l.55-12.07-2.66-.04c-1.5,0-3.41.04-5.71.1.19-3.08.3-5.42.3-7.05"/>
  <path class="cls-5" d="M972.39,237.94c-3.38,0-6.33.8-8.84,2.39-2.5,1.6-4.39,3.77-5.65,6.54-1.26,2.76-1.89,5.75-1.89,8.96,0,2.98.61,5.73,1.83,8.24,1.22,2.52,3.09,4.42,5.62,5.75,2.53,1.31,5.26,1.97,8.19,1.97,2.22,0,4.33-.39,6.35-1.16,2.01-.79,3.76-1.97,5.22-3.57,1.47-1.59,2.57-3.52,3.31-5.76.74-2.24,1.11-4.59,1.11-7.01,0-2.27-.32-4.45-.99-6.54s-1.68-3.88-3.07-5.38c-1.39-1.51-3.07-2.61-5.02-3.33-1.96-.73-4.02-1.09-6.16-1.09M972.93,230.62c3.33,0,6.53.47,9.61,1.41,3.07.94,5.78,2.47,8.16,4.59,2.37,2.12,4.17,4.59,5.38,7.42,1.2,2.82,1.81,6.11,1.81,9.87,0,3.53-.57,6.91-1.71,10.12-1.15,3.22-2.92,6-5.31,8.33-2.39,2.33-5.31,4.05-8.75,5.17-3.44,1.13-7.04,1.69-10.82,1.69-3.58,0-7.02-.52-10.33-1.55-3.31-1.03-6.14-2.65-8.52-4.85-2.38-2.2-4.09-4.73-5.12-7.58-1.03-2.86-1.55-5.95-1.55-9.27,0-3.65.64-7.13,1.93-10.46,1.28-3.32,3.18-6.08,5.68-8.26,2.49-2.18,5.41-3.83,8.76-4.95,3.35-1.13,6.95-1.69,10.8-1.69"/>
  <path class="cls-5" d="M1033.15,237.94c-3.38,0-6.33.8-8.84,2.39-2.5,1.6-4.39,3.77-5.65,6.54-1.27,2.76-1.89,5.75-1.89,8.96,0,2.98.6,5.73,1.82,8.24,1.23,2.52,3.1,4.42,5.63,5.75,2.53,1.31,5.26,1.97,8.18,1.97,2.23,0,4.34-.39,6.35-1.16,2.01-.79,3.76-1.97,5.22-3.57,1.47-1.59,2.57-3.52,3.31-5.76s1.11-4.59,1.11-7.01c0-2.27-.32-4.45-1-6.54-.66-2.09-1.67-3.88-3.07-5.38-1.39-1.51-3.06-2.61-5.02-3.33-1.97-.73-4.02-1.09-6.16-1.09M1033.69,230.62c3.32,0,6.53.47,9.6,1.41s5.79,2.47,8.16,4.59c2.36,2.12,4.16,4.59,5.38,7.42,1.2,2.82,1.8,6.11,1.8,9.87,0,3.53-.56,6.91-1.7,10.12-1.15,3.22-2.92,6-5.31,8.33-2.39,2.33-5.31,4.05-8.75,5.17-3.44,1.13-7.05,1.69-10.82,1.69s-7.02-.52-10.33-1.55c-3.31-1.03-6.15-2.65-8.52-4.85-2.39-2.2-4.09-4.73-5.13-7.58-1.03-2.86-1.54-5.95-1.54-9.27,0-3.65.64-7.13,1.93-10.46,1.28-3.32,3.18-6.08,5.68-8.26,2.49-2.18,5.41-3.83,8.76-4.95,3.35-1.13,6.95-1.69,10.8-1.69"/>
  <path class="cls-5" d="M1080.75,271.08c1.84.09,3.65.13,5.44.13,2.03,0,3.93-.1,5.66-.3,1.74-.2,3.22-.53,4.48-.98,1.26-.44,2.52-1.24,3.79-2.36,1.26-1.13,2.3-2.43,3.09-3.91.81-1.48,1.42-3.12,1.86-4.94.42-1.81.63-3.66.63-5.53,0-3.44-.57-6.27-1.7-8.48-1.15-2.22-2.65-3.81-4.53-4.78-1.87-.97-4.75-1.46-8.64-1.46-2.52,0-5.42.05-8.7.14l-1.38,32.47ZM1070.46,278.4l.91-11.97.66-14.96.43-14.89c.02-.65.03-2.36.03-5.13,2.49.04,4.82.06,7.03.06,1.63,0,3.79-.04,6.47-.1,2.67-.07,4.99-.11,6.93-.11,2.64,0,5.09.17,7.34.49,2.24.31,4.21.92,5.89,1.8,1.67.88,3.13,1.99,4.36,3.32,1.24,1.32,2.24,2.8,3.03,4.41.78,1.62,1.38,3.42,1.79,5.4.42,1.98.62,4.01.62,6.07,0,3.94-.66,7.7-2,11.26-1.33,3.57-3.32,6.52-5.96,8.85-2.64,2.33-5.57,3.82-8.77,4.49-3.21.66-6.86,1-10.94,1l-11.42-.07c-.71,0-2.85.03-6.41.07"/>
  <path class="cls-5" d="M1128.65,278.4c.42-4.11.75-8.71.97-13.83l.77-16.86c.28-6.1.41-11.53.41-16.27,2.59.05,4.79.07,6.6.07,1.34,0,3.31-.03,5.87-.07,2.53,4.53,6.02,10.42,10.48,17.69,4.46,7.26,8.05,13.28,10.79,18.06l1.23-31.92c.03-.76.04-2.03.04-3.82,2.11.05,3.69.07,4.77.07.43,0,1.99-.03,4.72-.07l-.84,12.63-1.04,21.59-.4,12.73c-2.33-.05-4.3-.07-5.94-.07-1.3,0-3.41.03-6.32.07-1.12-2.04-1.98-3.56-2.55-4.53-.91-1.51-2.88-4.64-5.88-9.37-1.97-3.11-4.43-7.1-7.39-11.97-2.16-3.57-4.03-6.7-5.58-9.36-.17,3.71-.44,10.61-.82,20.68-.16,4.1-.29,8.96-.37,14.55-2.11-.05-3.63-.07-4.57-.07-.75,0-2.38.03-4.94.07"/>
  <path class="cls-5" d="M1191.02,278.4l.97-13.17.71-15.24.43-13.86v-4.68c5.52.05,11.29.07,17.28.07l6.45-.04,9.71-.04-.4,7.44-3.2-.18c-.87-.05-2.08-.08-3.62-.1-1.54-.03-3.12-.04-4.73-.04-3.5,0-5.75,0-6.77.02-1.03,0-2.56.06-4.62.12l-.54,12.21c3.07.07,6.16.11,9.27.11,2.14,0,5.77-.07,10.88-.21-.18,2.09-.33,4.59-.47,7.5-5.98-.06-9.4-.1-10.27-.1-2.64,0-5.93.07-9.87.2l-.54,12.87,3.69.04c1.08,0,3.54-.03,7.39-.07l7.29-.13,4.87-.25c-.23,2.67-.38,5.18-.47,7.54-5.82-.05-11.06-.07-15.75-.07l-11.04.04-6.65.04Z"/>
  <path class="cls-5" d="M1239.25,277.4c-.18-3.49-.42-6.33-.71-8.52,4.4,2.03,8.38,3.05,11.96,3.05,1.43,0,2.77-.22,4.01-.66,1.25-.44,2.16-1.08,2.75-1.89.59-.81.89-1.73.89-2.73,0-.78-.14-1.48-.42-2.11-.43-.84-1.15-1.72-2.14-2.64-1.28-1.26-3.57-3.33-6.85-6.23-1.56-1.4-2.64-2.39-3.24-2.99-1.34-1.31-2.37-2.48-3.08-3.53-.72-1.04-1.24-2.08-1.55-3.11-.3-1.03-.46-2.13-.46-3.3,0-2.16.58-4.18,1.76-6.08,1.17-1.89,2.93-3.37,5.26-4.43,2.35-1.07,5.29-1.6,8.85-1.6,3.2,0,6.81.4,10.82,1.2.11,2.38.33,5.12.66,8.18-3.48-1.37-6.7-2.06-9.65-2.06-2.19,0-3.98.51-5.38,1.53-1.39,1.02-2.1,2.21-2.1,3.56,0,.37.06.76.15,1.15.1.4.24.79.43,1.16.2.39.54.88,1.04,1.48.5.62,1.24,1.33,2.2,2.13.96.82,1.78,1.48,2.46,1.99l4.15,3.84c1.04.9,1.99,1.76,2.82,2.61s1.53,1.66,2.12,2.45c.59.78,1.05,1.52,1.39,2.24.34.71.59,1.43.76,2.18.17.75.25,1.52.25,2.36,0,1.93-.43,3.74-1.3,5.46-.88,1.7-2.12,3.1-3.76,4.21-1.63,1.1-3.44,1.86-5.38,2.29-1.95.42-4.01.63-6.18.63-1.43,0-3.1-.12-5.01-.38-1.89-.25-4.41-.73-7.52-1.44"/>
  <path class="cls-5" d="M1280.2,277.4c-.18-3.49-.42-6.33-.71-8.52,4.39,2.03,8.38,3.05,11.96,3.05,1.42,0,2.77-.22,4.01-.66,1.25-.44,2.15-1.08,2.75-1.89.59-.81.89-1.73.89-2.73,0-.78-.14-1.48-.42-2.11-.43-.84-1.15-1.72-2.14-2.64-1.28-1.26-3.57-3.33-6.85-6.23-1.56-1.4-2.64-2.39-3.24-2.99-1.34-1.31-2.38-2.48-3.09-3.53-.71-1.04-1.23-2.08-1.54-3.11-.3-1.03-.46-2.13-.46-3.3,0-2.16.58-4.18,1.76-6.08,1.16-1.89,2.92-3.37,5.26-4.43,2.34-1.07,5.29-1.6,8.85-1.6,3.2,0,6.81.4,10.81,1.2.12,2.38.33,5.12.67,8.18-3.48-1.37-6.7-2.06-9.65-2.06-2.19,0-3.98.51-5.38,1.53-1.4,1.02-2.1,2.21-2.1,3.56,0,.37.05.76.15,1.15.1.4.24.79.43,1.16.2.39.54.88,1.04,1.48.5.62,1.23,1.33,2.2,2.13.96.82,1.77,1.48,2.46,1.99l4.15,3.84c1.04.9,1.99,1.76,2.81,2.61.83.85,1.54,1.66,2.12,2.45.6.78,1.06,1.52,1.39,2.24.34.71.58,1.43.76,2.18.17.75.25,1.52.25,2.36,0,1.93-.44,3.74-1.31,5.46-.87,1.7-2.12,3.1-3.76,4.21-1.63,1.1-3.43,1.86-5.38,2.29-1.94.42-4,.63-6.17.63-1.43,0-3.1-.12-5.01-.38-1.89-.25-4.41-.73-7.52-1.44"/>
</svg>