<svg xmlns="http://www.w3.org/2000/svg" xmlns:xlink="http://www.w3.org/1999/xlink" version="1.1" width="256" height="256" viewBox="0 0 256 256" xml:space="preserve">

<defs>
</defs>
<g style="stroke: none; stroke-width: 0; stroke-dasharray: none; stroke-linecap: butt; stroke-linejoin: miter; stroke-miterlimit: 10; fill: none; fill-rule: nonzero; opacity: 1;" transform="translate(1.4065934065934016 1.4065934065934016) scale(2.81 2.81)" >
	<path d="M 83.163 11.995 l -8.65 -8.65 C 72.355 1.188 69.488 0 66.438 0 H 22.461 c -3.418 0 -6.199 2.781 -6.199 6.199 V 9.78 h -6.258 c -3.479 0 -6.322 2.746 -6.495 6.183 H 3.493 v 28.372 c 0 3.591 2.921 6.512 6.512 6.512 h 6.258 v 32.954 c 0 3.418 2.781 6.199 6.199 6.199 h 57.847 c 3.418 0 6.199 -2.781 6.199 -6.199 V 20.069 C 86.508 17.019 85.32 14.151 83.163 11.995 z M 10.004 11.78 h 6.258 v 8.695 h -6.258 c -2.432 0 -4.406 -1.937 -4.495 -4.347 C 5.598 13.717 7.573 11.78 10.004 11.78 z M 5.493 44.335 V 20.648 c 1.172 1.129 2.76 1.827 4.512 1.827 h 12.547 h 24.368 h 8.323 c 2.487 0 4.512 2.024 4.512 4.512 v 17.348 c 0 2.487 -2.024 4.512 -4.512 4.512 H 10.004 C 7.517 48.847 5.493 46.822 5.493 44.335 z M 84.508 83.801 c 0 2.315 -1.884 4.199 -4.199 4.199 H 22.461 c -2.315 0 -4.199 -1.884 -4.199 -4.199 V 50.847 h 36.979 c 3.591 0 6.512 -2.921 6.512 -6.512 V 26.987 c 0 -3.59 -2.921 -6.512 -6.512 -6.512 h -8.323 H 22.551 h -4.289 V 6.199 C 18.263 3.884 20.146 2 22.461 2 h 37.464 c 2.786 0 5.053 2.267 5.053 5.053 v 7.691 c 0 3.742 3.044 6.786 6.785 6.786 h 7.691 c 2.786 0 5.053 2.267 5.053 5.053 V 83.801 z M 79.455 19.529 h -7.691 c -2.639 0 -4.785 -2.147 -4.785 -4.786 V 7.053 c 0 -1.981 -0.824 -3.77 -2.143 -5.053 h 1.603 c 2.516 0 4.881 0.98 6.66 2.759 l 8.65 8.65 c 1.779 1.779 2.759 4.144 2.759 6.66 v 1.604 C 83.225 20.353 81.436 19.529 79.455 19.529 z" style="stroke: none; stroke-width: 1; stroke-dasharray: none; stroke-linecap: butt; stroke-linejoin: miter; stroke-miterlimit: 10; fill: rgb(0,0,0); fill-rule: nonzero; opacity: 1;" transform=" matrix(1 0 0 1 0 0) " stroke-linecap="round" />
	<path d="M 21.166 26.789 h -5.617 c -0.552 0 -1 0.448 -1 1 v 9.312 v 6.376 c 0 0.552 0.448 1 1 1 s 1 -0.448 1 -1 v -5.376 h 4.617 c 2.03 0 3.682 -1.652 3.682 -3.682 v -3.947 C 24.848 28.441 23.196 26.789 21.166 26.789 z M 22.848 34.418 c 0 0.928 -0.754 1.682 -1.682 1.682 h -4.617 v -7.312 h 4.617 c 0.928 0 1.682 0.754 1.682 1.682 V 34.418 z" style="stroke: none; stroke-width: 1; stroke-dasharray: none; stroke-linecap: butt; stroke-linejoin: miter; stroke-miterlimit: 10; fill: rgb(0,0,0); fill-rule: nonzero; opacity: 1;" transform=" matrix(1 0 0 1 0 0) " stroke-linecap="round" />
	<path d="M 35.335 26.789 h -5.342 c -0.552 0 -1 0.448 -1 1 v 15.688 c 0 0.552 0.448 1 1 1 h 5.342 c 2.182 0 3.958 -1.775 3.958 -3.958 v -9.772 C 39.292 28.564 37.517 26.789 35.335 26.789 z M 37.292 40.519 c 0 1.08 -0.878 1.958 -1.958 1.958 h -4.342 V 28.789 h 4.342 c 1.08 0 1.958 0.878 1.958 1.958 V 40.519 z" style="stroke: none; stroke-width: 1; stroke-dasharray: none; stroke-linecap: butt; stroke-linejoin: miter; stroke-miterlimit: 10; fill: rgb(0,0,0); fill-rule: nonzero; opacity: 1;" transform=" matrix(1 0 0 1 0 0) " stroke-linecap="round" />
	<path d="M 53.023 26.789 h -8.299 c -0.552 0 -1 0.448 -1 1 v 15.688 c 0 0.552 0.448 1 1 1 s 1 -0.448 1 -1 v -6.844 h 4.435 c 0.553 0 1 -0.448 1 -1 s -0.447 -1 -1 -1 h -4.435 v -5.844 h 7.299 c 0.553 0 1 -0.448 1 -1 S 53.576 26.789 53.023 26.789 z" style="stroke: none; stroke-width: 1; stroke-dasharray: none; stroke-linecap: butt; stroke-linejoin: miter; stroke-miterlimit: 10; fill: rgb(0,0,0); fill-rule: nonzero; opacity: 1;" transform=" matrix(1 0 0 1 0 0) " stroke-linecap="round" />
	<path d="M 45.788 71.572 c -0.391 -0.391 -1.023 -0.391 -1.414 0 l -6.102 6.102 V 60.825 c 0 -0.553 -0.448 -1 -1 -1 s -1 0.447 -1 1 v 16.849 l -6.102 -6.102 c -0.391 -0.391 -1.023 -0.391 -1.414 0 s -0.391 1.023 0 1.414 l 6.323 6.323 c 0.602 0.602 1.393 0.904 2.184 0.906 c 0.003 0 0.006 0.002 0.009 0.002 s 0.006 -0.002 0.009 -0.002 c 0.791 -0.002 1.581 -0.304 2.184 -0.906 l 6.323 -6.323 C 46.178 72.596 46.178 71.963 45.788 71.572 z" style="stroke: none; stroke-width: 1; stroke-dasharray: none; stroke-linecap: butt; stroke-linejoin: miter; stroke-miterlimit: 10; fill: rgb(0,0,0); fill-rule: nonzero; opacity: 1;" transform=" matrix(1 0 0 1 0 0) " stroke-linecap="round" />
</g>
</svg>